<svg xmlns="http://www.w3.org/2000/svg" viewBox="0 0 28 28" id="Box-3-Fill--Streamline-Mingcute-Fill" height="28" width="28">
  <desc>
    Box 3 Fill Streamline Icon: https://streamlinehq.com
  </desc>
  <g fill="none" fill-rule="nonzero">
    <path d="M28 0v28H0V0h28ZM14.691833333333335 27.134333333333334l-0.012833333333333334 0.0023333333333333335 -0.08283333333333333 0.04083333333333334 -0.023333333333333334 0.004666666666666667 -0.016333333333333335 -0.004666666666666667 -0.08283333333333333 -0.04083333333333334c-0.011666666666666667 -0.004666666666666667 -0.022166666666666668 -0.0011666666666666668 -0.028000000000000004 0.005833333333333334l-0.004666666666666667 0.011666666666666667 -0.019833333333333335 0.49933333333333335 0.005833333333333334 0.023333333333333334 0.011666666666666667 0.015166666666666667 0.12133333333333333 0.08633333333333333 0.0175 0.004666666666666667 0.014000000000000002 -0.004666666666666667 0.12133333333333333 -0.08633333333333333 0.014000000000000002 -0.018666666666666668 0.004666666666666667 -0.019833333333333335 -0.019833333333333335 -0.4981666666666667c-0.0023333333333333335 -0.011666666666666667 -0.0105 -0.019833333333333335 -0.019833333333333335 -0.021Zm0.3091666666666667 -0.13183333333333336 -0.015166666666666667 0.0023333333333333335 -0.21583333333333335 0.1085 -0.011666666666666667 0.011666666666666667 -0.0035000000000000005 0.012833333333333334 0.021 0.5016666666666667 0.005833333333333334 0.014000000000000002 0.009333333333333334 0.008166666666666668 0.23450000000000004 0.1085c0.014000000000000002 0.004666666666666667 0.026833333333333334 0 0.03383333333333334 -0.009333333333333334l0.004666666666666667 -0.016333333333333335 -0.03966666666666667 -0.7163333333333334c-0.0035000000000000005 -0.014000000000000002 -0.011666666666666667 -0.023333333333333334 -0.023333333333333334 -0.025666666666666667Zm-0.8341666666666667 0.0023333333333333335a0.026833333333333334 0.026833333333333334 0 0 0 -0.0315 0.007000000000000001l-0.007000000000000001 0.016333333333333335 -0.03966666666666667 0.7163333333333334c0 0.014000000000000002 0.008166666666666668 0.023333333333333334 0.019833333333333335 0.028000000000000004l0.0175 -0.0023333333333333335 0.23450000000000004 -0.1085 0.011666666666666667 -0.009333333333333334 0.004666666666666667 -0.012833333333333334 0.019833333333333335 -0.5016666666666667 -0.0035000000000000005 -0.014000000000000002 -0.011666666666666667 -0.011666666666666667 -0.21466666666666667 -0.10733333333333334Z" stroke-width="1.1667"></path>
    <path fill="#e6e6e6" d="m24.225833333333334 9.312333333333335 0.025666666666666667 0.22166666666666668 0.008166666666666668 0.22633333333333336v8.479333333333333a2.916666666666667 2.916666666666667 0 0 1 -1.2821666666666667 2.415l-0.17500000000000002 0.11083333333333334 -7.344166666666667 4.2396666666666665 -0.14466666666666667 0.07816666666666668 -0.14700000000000002 0.07v-10.488333333333335l9.059166666666666 -5.352666666666667Zm-20.451666666666668 0L12.833333333333334 14.666166666666667v10.486a2.9318333333333335 2.9318333333333335 0 0 1 -0.2916666666666667 -0.14700000000000002l-7.343 -4.2396666666666665a2.916666666666667 2.916666666666667 0 0 1 -1.4583333333333335 -2.5258333333333334V9.760333333333334c0 -0.15166666666666667 0.011666666666666667 -0.30100000000000005 0.035 -0.44800000000000006ZM15.458333333333334 2.9948333333333337l7.343 4.2396666666666665c0.05833333333333334 0.035 0.11666666666666668 0.07 0.17266666666666666 0.10733333333333334L14 12.646666666666667 5.026 7.340666666666667c0.05600000000000001 -0.037333333333333336 0.11316666666666668 -0.07350000000000001 0.17266666666666666 -0.10733333333333334l7.343 -4.2396666666666665a2.916666666666667 2.916666666666667 0 0 1 2.916666666666667 0Z" stroke-width="1.1667"></path>
  </g>
</svg>