<svg width="555" height="442" viewBox="0 0 555 442" fill="none" xmlns="http://www.w3.org/2000/svg">
<g clip-path="url(#clip0_806_366)">
<path d="M2.85861 360.05C2.85861 362.06 1.3986 362.69 0.418604 361.11C-0.381396 359.81 1.3986 351.32 3.8186 344.83C8.3586 332.69 25.3586 313.14 39.5986 303.67C54.2986 293.9 77.8486 284.55 99.7786 279.78C107.309 278.14 113.329 277.66 127.859 277.52C144.939 277.37 146.739 277.17 151.349 275.03C155.139 273.26 158.619 272.59 165.849 272.27C171.079 272.04 175.989 271.65 176.769 271.4C178.259 270.91 175.349 269.01 144.389 250.2C123.169 237.32 116.899 234.42 107.229 233.05C99.1686 231.91 97.7886 230.86 100.429 227.88L102.359 225.71L95.7286 226.37C92.0886 226.73 88.3686 226.75 87.4786 226.41C85.0986 225.49 85.5086 222.48 88.1886 221.26C92.7586 219.18 103.039 209.73 110.569 200.69C120.659 188.58 130.839 172.92 140.629 154.5C144.999 146.25 149.979 137.15 151.679 134.28C153.389 131.4 159.239 120.6 164.689 110.28C188.109 65.93 206.729 37.23 230.249 9.25C236.109 2.27 238.609 0 240.439 0C242.259 0 242.879 0.56 242.949 2.25C242.999 3.49 243.339 12.9 243.699 23.17C244.059 33.43 244.599 42.08 244.899 42.38C245.199 42.68 248.929 41.81 253.189 40.46C257.449 39.11 261.559 38 262.329 38C263.099 38 264.899 37.56 266.329 37.01C268.849 36.05 268.879 35.94 267.389 33.06C266.549 31.43 265.859 29.85 265.859 29.55C265.859 28.29 269.989 29.15 273.299 31.1C275.259 32.25 276.859 32.79 276.859 32.29C276.859 31.79 275.509 27.68 273.859 23.16C270.239 13.23 270.059 10.44 273.019 9.67C274.209 9.36 275.929 9.50001 276.839 9.99001C279.619 11.48 291.639 24.71 295.509 30.53C298.529 35.07 299.839 36.17 303.249 37C312.189 39.18 318.719 41.33 326.719 44.73C332.819 47.32 335.269 47.95 335.819 47.07C336.219 46.41 337.119 41.96 337.809 37.19C339.279 27 342.829 7.85 343.439 6.87C343.669 6.49 344.749 6.42 345.829 6.7C349.799 7.74 371.849 44.96 383.929 71C390.819 85.84 405.519 121.65 407.339 128C407.739 129.38 411.349 138.83 415.359 149C419.379 159.17 425.229 174.02 428.359 182C438.679 208.33 451.169 229.49 463.559 241.64C469.789 247.75 470.619 248.95 469.329 250.02C468.159 251 466.589 251.02 462.179 250.14C454.379 248.57 453.299 248.62 454.849 250.49C457.349 253.5 455.299 255 448.639 255.01C445.189 255.02 439.439 255.72 435.859 256.56C428.889 258.2 387.859 275.83 387.859 277.19C387.859 277.63 388.819 278 389.989 278C391.159 278 393.539 278.88 395.269 279.94C397.859 281.54 399.119 281.73 402.389 280.97C412.139 278.71 428.069 277.84 439.879 278.92C466.529 281.35 498.999 293.07 518.009 307.13C526.609 313.49 541.419 329.08 545.739 336.34C551.919 346.74 556.159 361.5 552.959 361.5C552.089 361.5 550.869 358.96 549.699 354.68C546.249 342.1 539.149 331.31 526.119 318.88C512.849 306.21 498.919 298.19 476.859 290.52C452.409 282.02 437.689 280.23 412.169 282.67C395.959 284.22 394.839 284.22 392.349 282.59C390.899 281.63 387.379 280.48 384.539 280.01C379.879 279.25 378.219 279.57 367.859 283.2C361.529 285.42 354.209 288.08 351.569 289.12C348.939 290.15 346.239 290.99 345.569 290.98C344.909 290.96 349.759 288.77 356.359 286.1C362.959 283.43 376.459 277.54 386.359 273.02C416.219 259.37 428.979 254.17 436.859 252.41C444.419 250.73 446.689 250.26 446.729 249.65C446.739 249.4 446.359 249.12 445.799 248.71C445.739 248.67 445.679 248.62 445.609 248.57C444.649 247.86 443.859 246.48 443.859 245.51C443.859 243.99 444.569 243.81 448.889 244.23C451.659 244.49 454.139 244.36 454.399 243.93C454.669 243.5 451.109 240.63 446.489 237.56C429.729 226.41 401.389 215 390.449 215C382.949 215 381.969 212.96 387.309 208.48C390.249 206.01 390.749 205.17 389.539 204.71C387.199 203.81 373.299 205.47 354.319 208.9C330.389 213.23 310.729 216 303.919 216H298.079L297.429 219.49C296.619 223.78 294.039 225.4 290.279 223.97C287.989 223.1 286.979 223.34 283.909 225.47C279.219 228.71 278.149 228.66 273.029 224.9C269.819 222.53 268.199 221.95 266.219 222.45C262.849 223.29 259.859 220.66 259.859 216.86C259.859 214.59 259.319 213.92 257.109 213.45C245.259 210.9 226.629 205.84 212.359 201.29C192.369 194.92 174.359 190.02 170.909 190.01C168.539 190 168.579 190.13 172.269 193.91C177.799 199.57 176.959 200.44 165.779 200.6C150.149 200.82 119.689 209.91 104.939 218.76L100.359 221.5L105.849 222C110.049 222.38 111.419 222.91 111.679 224.25C111.859 225.22 111.299 226.28 110.429 226.61C107.889 227.59 108.619 228.73 112.219 229.41C119.239 230.72 142.199 243.53 173.779 263.73C180.889 268.28 192.489 274.78 206.359 282.01C249.309 304.4 283.169 309.09 321.509 297.95C327.089 296.33 331.949 295 332.319 295C333.799 295 329.669 299.48 323.499 304.57C316.129 310.65 300.289 328.31 301.769 328.8C304.199 329.61 359.889 300.3 375.749 289.86C382.929 285.14 385.859 284 385.859 285.95C385.859 291.25 299.489 337.01 283.799 340.02C276.169 341.49 266.909 339.77 252.859 334.29C238.649 328.75 232.749 325.54 211.859 312.02C182.369 292.93 167.939 285.49 156.579 283.52C125.529 278.13 104.559 279.81 75.3586 290.02C47.0786 299.9 25.4386 315.62 12.0786 336C8.07861 342.1 2.85861 355.71 2.85861 360.05ZM448.859 234.35C450.779 235.69 452.469 236.69 452.599 236.57C452.729 236.46 449.919 231.94 446.359 226.54C438.919 215.25 430.489 199.06 426.029 187.5C424.339 183.1 420.169 172.52 416.769 164C413.369 155.48 409.499 145.58 408.159 142C402.769 127.6 391.869 108.95 381.679 96.7C379.029 93.51 376.859 90.47 376.859 89.95C376.859 89.43 377.919 89 379.209 89C380.899 89 382.899 90.7 386.279 95C388.869 98.3 391.389 101 391.869 101C392.759 101 390.319 94.73 383.079 78.42C370.689 50.5 347.669 10.78 345.819 14.11C345.009 15.58 339.859 45.5 339.859 48.78C339.859 50.06 342.229 52.28 346.859 55.36C350.709 57.92 353.859 60.69 353.859 61.51C353.859 63.84 352.599 63.38 342.959 57.51C337.999 54.49 331.789 51.05 329.149 49.88C326.519 48.7 323.669 47.4 322.819 46.99C321.969 46.58 317.469 45.26 312.819 44.07C308.169 42.88 302.729 41.47 300.739 40.95C298.119 40.26 296.359 38.83 294.339 35.75C289.849 28.89 278.659 16 277.199 16C275.139 16 275.559 18.11 279.359 27C281.279 31.5 282.859 36.01 282.859 37.02C282.859 38.86 279.629 40.59 278.029 39.61C276.529 38.68 256.579 42.73 248.889 45.53C244.779 47.03 238.079 49.77 234.009 51.63C225.629 55.45 224.859 55.6 224.859 53.48C224.859 52.57 227.979 50.44 232.579 48.2L240.299 44.45L239.989 27.7C239.819 18.49 239.359 9.79 238.979 8.36C238.289 5.77 238.249 5.79 233.259 11.25C226.849 18.27 211.989 37.82 203.989 49.77C193.989 64.7 179.859 88.53 179.859 90.45C179.859 90.75 182.949 87.84 186.729 83.99C193.179 77.42 196.859 75.35 196.859 78.28C196.859 78.98 193.669 82.69 189.779 86.53C181.619 94.56 169.829 109.77 164.079 119.67C157.589 130.85 146.439 150.87 141.339 160.5C131.619 178.86 117.689 199.19 107.589 209.74C103.729 213.77 104.489 214.74 109.509 212.18C121.659 205.99 141.899 199.73 157.329 197.4C162.819 196.57 167.459 195.74 167.649 195.55C167.839 195.36 166.159 193.73 163.929 191.93C161.689 190.14 159.859 188 159.859 187.18C159.859 183.58 194.119 189.14 204.859 194.49C206.239 195.17 212.309 197.18 218.359 198.94C224.409 200.71 230.479 202.55 231.859 203.02C236.329 204.56 249.219 207.81 255.299 208.92C260.659 209.9 261.429 209.81 263.299 208.06C265.599 205.89 271.579 205.5 285.179 206.63C292.049 207.19 293.189 207.57 294.629 209.77C296.259 212.25 296.369 212.27 306.819 211.67C316.569 211.11 330.679 209.01 358.359 204C381.959 199.73 401.349 199.2 400.649 202.85C400.479 203.72 398.769 205.49 396.849 206.77C394.929 208.06 393.249 209.44 393.109 209.82C392.969 210.21 397.019 211.59 402.109 212.88C407.199 214.17 414.629 216.76 418.629 218.62C422.629 220.48 426.349 222 426.899 222C428.099 222 443.929 230.9 448.859 234.35ZM199.289 439.48C196.929 441.08 195.929 441.8 194.919 441.8C194.139 441.8 193.349 441.37 191.939 440.6L191.699 440.48C186.329 437.56 182.829 427.65 182.889 415.57C182.909 411.31 181.749 408.08 175.639 395.29C171.629 386.92 167.889 380.06 167.309 380.04C165.719 379.98 159.309 372.95 157.249 369C154.319 363.37 154.769 353.79 158.289 347.01C161.789 340.25 172.549 329.36 179.609 325.43C182.499 323.82 184.859 322.25 184.859 321.95C184.859 321.12 144.409 311.16 135.859 309.88C122.339 307.87 116.979 308.94 85.8586 319.93C73.4886 324.29 66.7786 325.04 63.0786 322.44C60.1686 320.4 60.2786 319.43 63.7786 315.92C66.1786 313.53 67.5486 313 71.3686 313C76.9886 313 77.1386 315.18 71.5786 316.08C69.5886 316.4 67.2386 317.27 66.3486 318.01C64.8786 319.23 64.8686 319.43 66.3186 320.24C68.7186 321.58 77.6386 319.42 92.7986 313.82C113.019 306.36 116.459 305.66 129.859 306.3C139.509 306.76 145.289 307.84 165.859 313.02C179.339 316.42 194.109 319.57 198.689 320.02C213.789 321.51 226.079 330.08 229.379 341.42C230.429 345.03 231.869 347.61 233.369 348.6C234.669 349.45 237.669 352.69 240.039 355.8C242.419 358.91 244.899 362.14 245.549 362.98C246.209 363.81 248.809 367.28 251.329 370.67C253.849 374.07 257.319 378.34 259.039 380.17C267.209 388.85 269.419 394.21 266.829 399.06C265.529 401.48 260.739 404 257.429 404C255.469 404 254.779 404.62 254.359 406.75C252.049 418.57 242.529 436.83 237.479 439.13C234.179 440.63 230.129 438.63 228.169 434.52C227.249 432.59 226.149 431 225.739 431C225.329 431 224.059 432.32 222.909 433.93C218.219 440.51 210.409 442.79 205.559 438.98L202.999 436.97L199.289 439.48ZM348.039 439.65C346.139 440.94 343.859 442 342.969 441.99C340.529 441.99 334.419 437.9 331.379 434.25C329.899 432.46 328.369 431 327.979 431C327.589 431 326.839 432.45 326.319 434.23C325.149 438.15 321.249 440.57 317.569 439.64C312.449 438.36 303.129 421.96 300.809 410.14C300.139 406.75 299.089 404.03 298.479 404.11C292.779 404.78 286.859 400.16 286.859 395.03C286.859 390.86 288.109 388.67 294.619 381.5C297.609 378.2 303.809 370.33 308.389 364C312.969 357.67 318.549 350.81 320.789 348.74C323.269 346.44 324.859 344.08 324.859 342.68C324.859 339.53 329.789 332.05 333.929 328.89C340.639 323.8 345.919 321.79 354.799 320.99C359.509 320.56 373.479 317.7 385.859 314.65C413.649 307.78 420.929 306.62 432.359 307.27C441.789 307.8 447.559 309.4 466.979 316.87C479.039 321.5 488.859 323.25 488.859 320.76C488.859 319.29 485.369 317.43 481.429 316.81C478.129 316.28 479.179 314.52 482.969 314.2C485.699 313.97 487.349 314.54 489.719 316.54C493.819 319.99 493.889 323.33 489.879 324.99C485.839 326.66 477.019 324.63 460.209 318.15C433.439 307.82 428.759 307.76 390.189 317.2L369.019 322.38L376.339 327.18C399.109 342.13 405.979 365.03 391.519 377.73C389.609 379.4 387.629 380.93 387.119 381.13C386.599 381.34 382.919 387.99 378.949 395.93C371.859 410.07 371.699 410.55 370.909 420.49C370.039 431.35 367.789 437.54 363.649 440.43C360.539 442.61 357.849 442.38 354.429 439.65L351.499 437.3L348.039 439.65ZM192.169 436.5C195.399 438.77 196.579 438.37 199.819 433.89C205.869 425.54 207.209 420.09 207.289 403.5C207.359 389.44 207.839 386 209.769 386C210.199 386 210.609 393.09 210.669 401.75C210.779 416.18 210.579 418.09 208.289 424.5C204.949 433.85 204.949 433.91 208.139 436.32C210.889 438.41 210.939 438.41 214.439 436.53C218.549 434.31 223.839 427.46 227.339 419.83C230.769 412.34 232.299 401.09 231.129 392.02C230.269 385.36 230.359 384.61 232.209 382.88C235.069 380.23 236.199 380.54 235.359 383.75C234.959 385.26 234.539 392.12 234.419 399C234.249 409.26 233.799 412.58 231.929 417.5C229.389 424.16 229.199 430.33 231.439 433.75C234.409 438.3 237.729 435.99 244.079 424.96C255.929 404.38 252.569 380.33 234.459 356C227.359 346.47 216.129 335.13 212.869 334.21C211.489 333.82 206.759 333.52 202.359 333.54C195.809 333.58 193.269 334.09 188.359 336.34C181.199 339.63 173.609 346.71 170.279 353.22C165.229 363.06 167.419 372.69 180.459 398C185.519 407.83 185.909 409.08 186.429 417.5C187.079 427.76 189.059 434.33 192.169 436.5ZM355.289 435.75C357.089 437.88 357.809 438.76 358.619 438.84C359.169 438.9 359.769 438.58 360.789 438.04L360.919 437.97C364.689 435.95 366.999 429.38 367.559 419.12C368.049 409.98 368.329 409.04 372.999 400.16C375.709 395.03 379.979 386.03 382.499 380.16C386.689 370.39 387.029 368.98 386.579 363.29C385.989 355.77 383.069 350.34 376.089 343.81C368.369 336.59 363.879 334.7 353.249 334.2C341.629 333.66 339.159 334.78 329.599 344.93C313.939 361.59 305.479 377.43 303.649 393.55C302.059 407.6 305.029 418.66 313.849 431.48C317.199 436.36 320.989 437.55 322.689 434.25C324.429 430.86 324.769 423.72 323.319 420.92C320.809 416.07 319.729 408.76 319.459 394.83L319.189 381.16L321.279 382.73C323.209 384.19 323.359 385.29 323.379 398.4C323.389 410.67 323.689 413.23 325.639 418.1C330.479 430.16 338.929 438.95 344.349 437.59C348.639 436.51 349.049 434.02 346.079 426.91C343.549 420.84 343.409 419.62 343.379 403.73C343.359 389.35 343.569 386.99 344.859 387.24C346.099 387.47 346.449 390.47 346.859 404.51C347.319 420.14 347.569 421.94 349.949 427C351.369 430.03 353.779 433.96 355.289 435.75ZM285.959 269.32C277.779 273.71 273.319 273.55 264.139 268.56C258.149 265.3 254.759 260.78 249.419 249C247.309 244.33 243.839 237.29 241.719 233.38C239.599 229.46 237.859 225.75 237.859 225.13C237.859 222.48 241.339 224.4 246.349 229.82C254.289 238.39 262.519 242.29 273.719 242.8C294.719 243.76 295.919 243.66 302.929 240.36C306.539 238.67 311.139 235.58 313.149 233.52C315.439 231.15 317.359 229.98 318.329 230.35C320.679 231.25 320.229 232.47 315.339 238.47C312.859 241.52 309.279 246.43 307.389 249.38C303.349 255.71 292.469 265.82 285.959 269.32ZM262.229 327.2C269.429 329.75 271.449 330.05 279.889 329.77C288.409 329.48 289.929 329.13 294.259 326.47C296.919 324.84 299.859 323.05 300.789 322.5C303.939 320.64 320.379 302.7 318.359 303.32C313.769 304.73 297.869 307.05 288.949 307.61C271.009 308.74 244.769 303.82 226.529 295.91C221.569 293.76 217.449 292 217.359 292C217.279 292 223.449 298.3 231.069 306C238.689 313.7 245.419 320 246.019 320C246.629 320 248.689 320.97 250.609 322.16C252.529 323.34 257.759 325.61 262.229 327.2ZM238.189 324.38C242.999 326.92 247.199 329 247.509 329C248.649 329 224.469 303.9 217.059 297.4C212.819 293.69 207.069 288.32 204.279 285.47C199.439 280.56 190.939 276.22 188.769 277.56C188.309 277.84 185.359 277.33 182.209 276.41C174.999 274.32 157.959 274.81 153.359 277.25C150.619 278.71 150.529 278.9 152.359 279.5C153.459 279.87 155.399 280.58 156.669 281.09C157.939 281.59 160.019 281.75 161.299 281.43C165.279 280.43 195.539 296.98 220.819 313.97C225.549 317.15 233.369 321.84 238.189 324.38ZM325.119 174.23C322.009 176.97 317.569 177.31 315.089 175C311.109 171.29 310.509 164.29 313.269 153.93C316.149 143.15 317.999 140.31 322.999 138.96C326.379 138.05 327.309 138.19 329.779 139.94C333.319 142.47 334.109 145.4 332.919 151.65C331.339 159.92 326.959 172.6 325.119 174.23ZM249.359 169.75C247.929 170.98 247.179 171.64 246.339 171.77C245.369 171.92 244.289 171.34 241.919 170.09L241.809 170.03C237.309 167.65 235.849 164.42 235.029 155.01C233.929 142.45 234.189 138.4 236.219 136.16C238.899 133.2 243.399 132.47 246.479 134.49C249.919 136.74 251.569 141.11 252.789 151.11C254.009 161.18 253.019 166.59 249.359 169.75ZM162.039 371.25C163.119 372.76 164.109 374 164.239 374C164.369 374 164.459 370.06 164.419 365.25C164.349 354.5 166.279 349.98 174.409 341.84C182.589 333.67 189.169 330.73 200.499 330.2C211.089 329.7 215.419 330.81 220.649 335.36C223.219 337.58 223.829 337.85 222.749 336.28C221.909 335.06 219.449 332.64 217.289 330.9C203.389 319.7 187.389 321.28 172.179 335.37C158.169 348.34 154.639 360.83 162.039 371.25ZM389.039 371.91C387.499 376.33 389.319 375.77 392.599 370.82C394.869 367.38 395.349 365.58 395.309 360.57C395.249 352.58 391.609 345.48 383.449 337.5C368.009 322.37 351.579 319.96 337.459 330.75C334.759 332.81 331.849 335.62 330.979 337C329.719 338.98 330.249 338.74 333.509 335.86C342.259 328.12 359.749 328.23 372.019 336.1C377.889 339.87 384.049 346.49 386.919 352.12C389.499 357.17 390.599 367.44 389.039 371.91ZM268.659 252.07C276.839 254.68 284.559 254.49 293.669 251.43C300.989 248.97 304.389 247.2 303.489 246.3C303.259 246.07 300.489 246.63 297.329 247.55C293.209 248.75 289.979 249.03 285.969 248.54C282.879 248.16 276.979 247.7 272.859 247.52C265.309 247.19 258.649 245.37 254.599 242.53C251.449 240.32 250.229 240.65 252.449 243.1C255.219 246.16 262.119 249.98 268.659 252.07ZM254.529 400.33C256.469 402.28 262.699 399.5 263.489 396.33C263.809 395.05 263.809 392.99 263.489 391.75C262.849 389.25 252.379 377.21 251.549 378C251.259 378.28 251.659 380.96 252.439 383.97C253.219 386.98 253.859 391.74 253.859 394.55C253.859 397.36 254.159 399.97 254.529 400.33ZM294.359 399.86C298.349 402.07 299.239 400.92 300.469 391.99C301.109 387.32 302.119 382.26 302.719 380.75C304.449 376.38 302.749 377.49 296.079 385.07C288.539 393.64 288.209 396.45 294.359 399.86ZM230.299 115.5C226.409 119.62 224.859 119.92 224.859 116.55C224.859 115.08 226.159 112.89 228.109 111.06C231.069 108.28 231.969 108.01 238.129 108C243.639 108 245.639 108.47 248.879 110.51C253.149 113.21 253.609 114.13 251.549 115.85C250.559 116.66 249.319 116.32 246.599 114.47C244.009 112.71 241.609 112 238.279 112C234.219 112 233.149 112.47 230.299 115.5ZM267.579 335.91C276.829 338.09 292.489 335.8 293.679 332.1C294.019 331.03 293.549 330.88 291.739 331.45C290.429 331.86 285.309 332.42 280.359 332.7C272.009 333.16 264.549 332.07 257.139 329.29C255.549 328.7 255.519 328.82 256.789 330.38C258.629 332.64 262.809 334.79 267.579 335.91ZM345.689 121.94C346.479 124.2 346.389 125.14 345.309 126.04C344.189 126.97 343.489 126.49 341.769 123.58C340.589 121.58 338.809 119.51 337.809 118.97C335.079 117.51 326.139 117.8 322.939 119.46C321.379 120.26 319.829 120.64 319.489 120.29C316.459 117.27 324.379 113.58 332.609 114.18C339.449 114.67 344.119 117.45 345.689 121.94ZM319.939 157.6C323.339 161.69 327.859 155.98 327.859 147.6C327.859 143.44 327.639 143 325.509 143C323.749 143 322.769 143.93 321.579 146.75C319.179 152.45 318.639 156.03 319.939 157.6ZM241.539 152.54C244.449 155.45 246.329 153.93 246.659 148.43C247.059 141.6 245.609 138 242.449 138C240.829 138 239.769 138.72 239.329 140.1C238.369 143.13 239.719 150.71 241.539 152.54Z" fill="#201B2C"/>
<path d="M407.439 283.12C404.339 283.54 401.149 284.06 397.859 284.66C389.739 286.13 386.239 287.15 381.849 289.86C384.409 288 385.859 286.64 385.859 285.95C385.859 284 382.929 285.14 375.749 289.86C359.889 300.3 304.199 329.61 301.769 328.8C300.289 328.31 316.129 310.65 323.499 304.57C329.669 299.48 333.799 295 332.319 295C331.949 295 327.089 296.33 321.509 297.95C315.059 299.82 308.739 301.25 302.489 302.22C312.429 300.56 323.199 297.57 336.359 293.03C349.409 288.53 357.069 285.76 365.539 282.24C361.919 283.79 358.709 285.15 356.359 286.1C349.759 288.77 344.909 290.96 345.569 290.98C346.239 290.99 348.939 290.15 351.569 289.12C354.209 288.08 361.529 285.42 367.859 283.2C378.219 279.57 379.879 279.25 384.539 280.01C387.379 280.48 390.899 281.63 392.349 282.59C394.569 284.04 395.699 284.2 407.439 283.12ZM238.189 324.38C233.369 321.84 225.549 317.15 220.819 313.97C195.539 296.98 165.279 280.43 161.299 281.43C160.019 281.75 157.939 281.59 156.669 281.09C155.399 280.58 153.459 279.87 152.359 279.5C150.529 278.9 150.619 278.71 153.359 277.25C157.959 274.81 174.999 274.32 182.209 276.41C185.359 277.33 188.309 277.84 188.769 277.56C190.939 276.22 199.439 280.56 204.279 285.47C207.069 288.32 212.819 293.69 217.059 297.4C224.469 303.9 248.649 329 247.509 329C247.199 329 242.999 326.92 238.189 324.38ZM162.039 371.25C154.639 360.83 158.169 348.34 172.179 335.37C187.389 321.28 203.389 319.7 217.289 330.9C219.449 332.64 221.909 335.06 222.749 336.28C223.829 337.85 223.219 337.58 220.649 335.36C215.419 330.81 211.089 329.7 200.499 330.2C189.169 330.73 182.589 333.67 174.409 341.84C166.279 349.98 164.349 354.5 164.419 365.25C164.459 370.06 164.369 374 164.239 374C164.109 374 163.119 372.76 162.039 371.25ZM389.039 371.91C390.599 367.44 389.499 357.17 386.919 352.12C384.049 346.49 377.889 339.87 372.019 336.1C359.749 328.23 342.259 328.12 333.509 335.86C330.249 338.74 329.719 338.98 330.979 337C331.849 335.62 334.759 332.81 337.459 330.75C351.579 319.96 368.009 322.37 383.449 337.5C391.609 345.48 395.249 352.58 395.309 360.57C395.349 365.58 394.869 367.38 392.599 370.82C389.319 375.77 387.499 376.33 389.039 371.91ZM267.579 335.91C262.809 334.79 258.629 332.64 256.789 330.38C255.519 328.82 255.549 328.7 257.139 329.29C264.549 332.07 272.009 333.16 280.359 332.7C285.309 332.42 290.429 331.86 291.739 331.45C293.549 330.88 294.019 331.03 293.679 332.1C292.489 335.8 276.829 338.09 267.579 335.91ZM377.129 293.07C367.809 299.47 348.219 310.22 329.219 319.83C347.469 310.49 366.429 299.99 377.129 293.07ZM195.559 276.28C186.489 271.38 178.949 267.04 173.779 263.73C171.909 262.53 170.059 261.35 168.239 260.2C178.879 266.67 187.759 271.91 195.559 276.28ZM436.629 281.8C449.629 282.41 461.269 285.1 476.859 290.52C462.329 285.47 449.649 282.61 436.629 281.8ZM137.089 241.34C124.779 234.34 116.089 230.13 112.219 229.41C116.279 230.17 124.689 234.21 137.089 241.34ZM405.599 264.35C422.529 256.86 430.809 253.76 436.859 252.41C430.929 253.73 422.249 257 405.599 264.35ZM262.289 302.04C258.439 301.4 254.549 300.59 250.619 299.59C254.619 300.56 258.669 301.41 262.289 302.04Z" fill="#274156"/>
<path d="M2.85938 360.051C2.85938 355.711 8.07938 342.101 12.0794 336.001C25.4394 315.621 47.0794 299.901 75.3594 290.021C104.559 279.811 125.529 278.131 156.579 283.521C167.939 285.491 182.369 292.931 211.859 312.021C232.749 325.541 238.649 328.751 252.859 334.291C266.909 339.771 276.169 341.491 283.799 340.021C290.379 338.761 309.369 329.991 329.219 319.831C348.219 310.221 367.809 299.471 377.129 293.071C378.959 291.891 380.549 290.811 381.849 289.861C386.239 287.151 389.739 286.131 397.859 284.661C401.149 284.061 404.339 283.541 407.439 283.121C408.859 282.991 410.429 282.841 412.169 282.671C421.419 281.791 429.249 281.461 436.629 281.801C449.649 282.611 462.329 285.471 476.859 290.521C498.919 298.191 512.849 306.211 526.119 318.881C539.149 331.311 546.249 342.101 549.699 354.681C550.869 358.961 552.089 361.501 552.959 361.501C554.639 361.501 554.269 357.421 552.639 352.051C553.369 354.381 553.859 356.471 554.019 358.041L554.359 361.501L477.859 361.831C426.949 362.061 400.939 362.521 400.109 363.211C399.419 363.781 398.859 364.881 398.859 365.661C398.859 366.851 398.139 368.611 397.029 370.541C403.219 357.541 395.279 339.611 376.339 327.181L369.019 322.381L390.189 317.201C428.759 307.761 433.439 307.821 460.209 318.151C477.019 324.631 485.839 326.661 489.879 324.991C493.889 323.331 493.819 319.991 489.719 316.541C487.349 314.541 485.699 313.971 482.969 314.201C479.179 314.521 478.129 316.281 481.429 316.811C485.369 317.431 488.859 319.291 488.859 320.761C488.859 323.251 479.039 321.501 466.979 316.871C447.559 309.401 441.789 307.801 432.359 307.271C420.929 306.621 413.649 307.781 385.859 314.651C373.479 317.701 359.509 320.561 354.799 320.991C345.919 321.791 340.639 323.801 333.929 328.891C329.789 332.051 324.859 339.531 324.859 342.681C324.859 344.081 323.269 346.441 320.789 348.741C318.789 350.591 314.109 356.291 309.859 362.001L279.639 362.071C262.989 362.111 248.589 362.451 247.639 362.821C246.489 363.281 246.449 363.921 248.269 366.571C246.969 364.841 245.939 363.461 245.549 362.981C244.899 362.141 242.419 358.911 240.039 355.801C237.669 352.691 234.669 349.451 233.369 348.601C231.869 347.611 230.429 345.031 229.379 341.421C226.079 330.081 213.789 321.511 198.689 320.021C194.109 319.571 179.339 316.421 165.859 313.021C145.289 307.841 139.509 306.761 129.859 306.301C116.459 305.661 113.019 306.361 92.7994 313.821C77.6394 319.421 68.7194 321.581 66.3194 320.241C64.8694 319.431 64.8794 319.231 66.3494 318.011C67.2394 317.271 69.5894 316.401 71.5794 316.081C77.1394 315.181 76.9894 313.001 71.3694 313.001C67.5494 313.001 66.1794 313.531 63.7794 315.921C60.2794 319.431 60.1694 320.401 63.0794 322.441C66.7794 325.041 73.4894 324.291 85.8594 319.931C116.979 308.941 122.339 307.871 135.859 309.881C144.409 311.161 184.859 321.121 184.859 321.951C184.859 322.251 182.499 323.821 179.609 325.431C172.549 329.361 161.789 340.251 158.289 347.011C155.509 352.351 154.649 359.441 155.839 364.961C155.679 364.431 155.549 363.931 155.459 363.501L154.809 360.501L116.589 361.241C95.5594 361.651 60.8094 361.881 39.3594 361.741L2.48938 361.511C2.71938 361.181 2.85938 360.681 2.85938 360.051ZM46.9894 299.201C55.6294 294.181 65.4094 289.961 77.0694 286.141C66.0994 289.871 55.6294 294.401 46.9894 299.201ZM265.739 388.611C268.489 392.951 268.589 395.761 266.829 399.061C268.459 396.011 268.189 392.761 265.739 388.611ZM299.569 375.571C297.599 378.041 295.839 380.151 294.619 381.501C293.289 382.971 292.179 384.221 291.249 385.331C292.469 383.801 294.009 382.011 295.949 379.821C297.039 378.591 298.299 377.111 299.569 375.571ZM391.859 377.421C390.169 379.211 388.459 380.611 387.119 381.131C387.629 380.931 389.609 379.401 391.519 377.731C391.629 377.631 391.749 377.521 391.859 377.421ZM11.5094 331.471C14.7094 326.941 18.5694 322.371 23.0194 317.851C18.7794 322.241 14.7994 326.941 11.5094 331.471ZM3.02939 347.071C2.23939 349.471 1.55939 351.981 1.05939 354.221C1.46939 351.911 2.12939 349.521 3.02939 347.071ZM87.3994 282.901C91.8994 281.581 95.8294 280.571 99.6294 279.811C95.5794 280.701 91.4894 281.731 87.3994 282.901ZM252.599 372.351C254.629 374.941 257.029 377.861 258.899 380.011C257.419 378.421 254.839 375.271 252.599 372.351ZM289.269 400.591C291.519 402.991 295.039 404.511 298.469 404.111C294.979 404.521 291.499 403.011 289.269 400.591ZM0.71936 361.501H0.359375L0.389374 361.051C0.519374 361.261 0.61936 361.391 0.71936 361.501ZM158.409 370.901C159.649 372.731 161.349 374.811 162.959 376.521C161.289 374.761 159.539 372.631 158.409 370.901Z" fill="#315671"/>
<path d="M192.169 436.5C189.059 434.33 187.079 427.76 186.429 417.5C185.909 409.08 185.519 407.83 180.459 398C167.419 372.69 165.229 363.06 170.279 353.22C173.609 346.71 181.199 339.63 188.359 336.34C193.269 334.09 195.809 333.58 202.359 333.54C206.759 333.52 211.489 333.82 212.869 334.21C216.129 335.13 227.359 346.47 234.459 356C235.879 357.9 237.199 359.8 238.429 361.69C237.959 361.1 237.569 360.72 237.269 360.6C236.179 360.19 236.289 360.93 237.729 363.78C241.609 371.48 243.259 380.82 243.309 395.5C243.349 406.06 242.889 411.34 241.469 417C239.389 425.23 235.649 433.52 233.639 434.33C232.939 434.61 233.539 434.88 234.969 434.92C237.589 435 239.239 433.17 244.459 424.3C244.329 424.52 244.209 424.74 244.079 424.96C237.729 435.99 234.409 438.3 231.439 433.75C229.199 430.33 229.389 424.16 231.929 417.5C233.799 412.58 234.249 409.26 234.419 399C234.539 392.12 234.959 385.26 235.359 383.75C236.199 380.54 235.069 380.23 232.209 382.88C231.119 383.9 230.639 384.58 230.609 386.33C230.499 385.17 230.439 384.33 230.419 384C230.389 383.17 229.349 382.36 228.109 382.18C225.469 381.81 225.419 382.26 226.969 392.26C228.259 400.57 226.899 411.32 223.529 419.5C221.209 425.12 214.789 434.36 212.119 435.91C210.539 436.83 210.589 436.94 212.609 436.97C215.929 437.01 222.329 429.86 226.349 421.62C228.309 417.59 229.719 413.37 230.569 408.98C229.859 412.96 228.759 416.72 227.339 419.83C223.839 427.46 218.549 434.31 214.439 436.53C210.939 438.41 210.889 438.41 208.139 436.32C204.949 433.91 204.949 433.85 208.289 424.5C210.579 418.09 210.779 416.18 210.669 401.75C210.609 393.09 210.199 386 209.769 386C207.839 386 207.359 389.44 207.289 403.5C207.279 405.8 207.239 407.89 207.179 409.79C207.179 408.37 207.159 406.79 207.129 405C207.009 398.12 207.299 391.07 207.779 389.32C208.479 386.8 208.339 386.01 207.089 385.54C206.229 385.21 205.089 385.37 204.559 385.9C204.029 386.43 203.499 394.2 203.369 403.18C203.109 421.44 201.799 427.26 196.759 432.55C195.169 434.22 193.859 435.91 193.859 436.3C193.859 436.68 194.769 437 195.879 437C198.309 437 202.969 430.08 205.579 422.6L205.609 422.53C204.489 426.65 202.679 429.95 199.819 433.89C196.579 438.37 195.399 438.77 192.169 436.5ZM355.289 435.75C353.779 433.96 351.369 430.03 349.949 427C347.569 421.94 347.319 420.14 346.859 404.51C346.449 390.47 346.099 387.47 344.859 387.24C343.969 387.07 343.589 388.15 343.449 393.67C343.339 391.38 343.159 390 342.949 390C341.259 390 338.589 398.58 338.109 405.52C337.609 412.82 339.349 422.01 342.489 428.62C343.369 430.49 343.879 433.13 343.609 434.5C343.249 436.43 343.559 437 344.959 437C345.559 437 346.069 436.91 346.489 436.74C345.929 437.1 345.219 437.37 344.349 437.59C338.929 438.95 330.479 430.16 325.639 418.1C323.689 413.23 323.389 410.67 323.379 398.4C323.359 385.29 323.209 384.19 321.279 382.73L319.189 381.16L319.459 394.83C319.589 401.57 319.909 406.76 320.489 410.87C320.349 410.04 320.249 409.25 320.179 408.52C319.799 404.49 319.079 401.91 318.219 401.58C315.319 400.47 316.989 417.25 320.509 424.68C321.889 427.59 322.219 427.78 323.569 426.43C323.849 426.15 324.069 425.9 324.219 425.64C324.299 428.67 323.759 432.17 322.689 434.25C320.989 437.55 317.199 436.36 313.849 431.48C305.029 418.66 302.059 407.6 303.649 393.55C305.479 377.43 313.939 361.59 329.599 344.93C339.159 334.78 341.629 333.66 353.249 334.2C363.879 334.7 368.369 336.59 376.089 343.81C379.719 347.21 382.259 350.31 383.939 353.56C382.679 353.52 370.709 370.73 365.559 380.03C361.739 386.91 357.869 400.76 357.879 407.5C357.879 409.7 358.549 413.97 359.359 417C361.679 425.65 361.339 429.67 358.009 433.01C355.979 435.03 355.469 435.72 356.009 436.61C355.789 436.35 355.549 436.06 355.289 435.75ZM195.559 276.28C187.759 271.91 178.879 266.67 168.239 260.2C156.339 252.67 145.799 246.3 137.089 241.34C124.689 234.21 116.279 230.17 112.219 229.41C108.619 228.73 107.889 227.59 110.429 226.61C111.299 226.28 111.859 225.22 111.679 224.25C111.419 222.91 110.049 222.38 105.849 222L100.359 221.5L104.939 218.76C119.689 209.91 150.149 200.82 165.779 200.6C176.959 200.44 177.799 199.57 172.269 193.91C168.579 190.13 168.539 190 170.909 190.01C172.119 190.01 175.109 190.61 179.359 191.67C177.459 191.24 176.129 191 175.479 191C174.449 191 178.279 194.14 183.979 197.98C196.599 206.47 197.859 207.45 197.859 208.72C197.859 209.33 191.269 209.94 181.109 210.26C151.769 211.21 137.859 215.94 137.859 224.97C137.859 228.35 138.569 229.18 148.609 237.55C167.179 253.02 179.049 261.43 192.919 268.95C200.309 272.95 210.259 278.41 215.039 281.08C223.759 285.95 242.829 294.26 252.619 297.45C255.519 298.4 258.529 299.82 259.319 300.61C259.959 301.25 262.659 302.04 265.799 302.57C264.629 302.41 263.459 302.23 262.289 302.04C258.669 301.41 254.619 300.56 250.619 299.59C236.639 296.05 222.109 290.22 206.359 282.01C202.569 280.04 198.959 278.12 195.559 276.28ZM262.229 327.2C257.759 325.61 252.529 323.34 250.609 322.16C248.689 320.97 246.629 320 246.019 320C245.419 320 238.689 313.7 231.069 306C223.449 298.3 217.279 292 217.359 292C217.449 292 221.569 293.76 226.529 295.91C242.429 302.81 264.409 307.43 281.669 307.76L266.759 308.29L265.309 311.09C264.509 312.64 263.859 315.1 263.859 316.56C263.859 318.97 266.779 325.45 269.359 328.78C270.079 329.71 272.979 329.98 279.889 329.76C284.309 329.61 286.839 329.45 288.859 328.96C286.839 329.45 284.309 329.62 279.889 329.77C271.449 330.05 269.429 329.75 262.229 327.2ZM294.359 399.86C292.989 399.1 291.949 398.38 291.229 397.61C291.439 397.5 291.649 396.89 291.959 395.73C292.979 391.9 296.499 386.48 299.719 383.77C301.189 382.53 302.449 380.96 303.079 379.77C302.989 380.06 302.869 380.39 302.719 380.75C302.119 382.26 301.109 387.32 300.469 391.99C299.239 400.92 298.349 402.07 294.359 399.86ZM254.529 400.33C254.159 399.97 253.859 397.36 253.859 394.55C253.859 391.74 253.219 386.98 252.439 383.97C252.159 382.87 251.919 381.82 251.749 380.91C252.469 382.46 253.729 384.47 255.369 386.5C259.389 391.48 260.859 394.28 260.859 396.93C260.859 397.9 261.179 398.71 261.599 398.94C259.379 400.73 255.889 401.7 254.529 400.33ZM386.709 367.27C386.549 370.38 385.539 373.07 382.499 380.16C382.239 380.76 381.969 381.38 381.679 382.03C384.379 375.69 386.199 370.42 386.709 367.27ZM248.309 415.72C250.379 409.37 251.259 402.22 250.879 395.3C251.419 402.32 250.569 409.16 248.309 415.72ZM302.949 306.12C309.499 305.22 315.749 304.12 318.359 303.32C315.069 304.33 309.459 305.32 302.949 306.12ZM343.559 416.12C343.819 421.13 344.459 423.03 346.079 426.91C347.489 430.29 348.139 432.62 347.969 434.26C348.059 432.59 347.429 430.16 346.059 426.91C344.349 422.86 343.729 421.07 343.559 416.12ZM242.939 369.34C244.539 372.39 245.909 375.43 247.039 378.44C245.819 375.38 244.359 372.18 242.939 369.34ZM292.359 389.65C293.299 388.33 294.539 386.82 296.079 385.07C296.329 384.78 296.579 384.5 296.809 384.24C295.229 386.06 293.629 388.01 292.359 389.65ZM212.359 201.29C221.279 204.14 231.899 207.18 241.499 209.68C231.899 207.18 221.279 204.14 212.359 201.3C209.519 200.4 206.779 199.53 204.159 198.73C206.829 199.55 209.579 200.4 212.359 201.29ZM290.549 396.63C290.579 396.7 290.599 396.78 290.629 396.84C290.259 396.25 290.069 395.63 290.059 394.95C290.179 395.52 290.359 396.13 290.549 396.63ZM263.489 396.33C263.459 396.47 263.409 396.61 263.349 396.76C263.759 395.23 263.869 393.23 263.479 391.75C263.409 391.47 263.229 391.1 262.969 390.64C263.239 391.1 263.419 391.48 263.489 391.75C263.809 392.99 263.809 395.05 263.489 396.33ZM231.169 392.38C231.359 393.94 231.469 395.56 231.499 397.22C231.469 395.83 231.379 394.42 231.229 393C231.209 392.79 231.189 392.58 231.169 392.38ZM302.349 302.24C309.389 301.07 316.849 299.23 325.269 296.66C316.899 299.22 309.489 301.05 302.489 302.22L302.349 302.24ZM356.819 437.53C357.289 438 357.619 438.34 357.909 438.56C357.599 438.35 357.259 438.01 356.819 437.53ZM251.529 378.02C251.539 378.01 251.539 378.01 251.549 378C251.619 377.93 251.769 377.96 251.979 378.07C251.869 378.03 251.779 378 251.709 378C251.649 378 251.589 378.01 251.529 378.02Z" fill="#979F9D"/>
<path d="M271.95 40.0401C268.53 40.8201 265.7 42.7701 258.23 48.5001C243.2 60.0401 217.2 86.8701 207.03 101.34C196.1 116.89 185.31 139.25 177.76 162C175.11 169.98 172.28 178.3 171.46 180.5C170.13 184.11 170.14 184.62 171.61 185.75C172.51 186.44 174.77 187 176.63 187C178.26 187 183.17 188.07 188.5 189.43C175.15 186.46 159.86 184.78 159.86 187.18C159.86 188 161.69 190.14 163.93 191.93C166.16 193.73 167.84 195.36 167.65 195.55C167.46 195.74 162.82 196.57 157.33 197.4C141.9 199.73 121.66 205.99 109.51 212.18C104.49 214.74 103.73 213.77 107.59 209.74C117.69 199.19 131.62 178.86 141.34 160.5C146.44 150.87 157.59 130.85 164.08 119.67C169.83 109.77 181.62 94.5601 189.78 86.5301C193.67 82.6901 196.86 78.9801 196.86 78.2801C196.86 75.3501 193.18 77.4201 186.73 83.9901C182.95 87.8401 179.86 90.7501 179.86 90.4501C179.86 88.5301 193.99 64.7001 203.99 49.7701C211.99 37.8201 226.85 18.2701 233.26 11.2501C238.25 5.79011 238.29 5.77011 238.98 8.36011C239.36 9.79011 239.82 18.4901 239.99 27.7001L240.3 44.4501L232.58 48.2001C227.98 50.4401 224.86 52.5701 224.86 53.4801C224.86 55.6001 225.63 55.4501 234.01 51.6301C238.08 49.7701 244.78 47.0301 248.89 45.5301C254.12 43.6301 265.03 41.1401 271.95 40.0401ZM194.87 75.7501C194.85 77.7701 195.5 77.3201 202.13 70.6901C205.6 67.2201 212.13 61.9401 216.65 58.9601C221.16 55.9701 224.86 53.1901 224.86 52.7801C224.86 52.3701 227.04 50.9301 229.71 49.5801L234.56 47.1201L235.21 39.4101C236.09 28.9801 236.03 20.0001 235.08 20.0001C232.5 20.0001 213.29 43.1001 204.26 57.0501C199.56 64.3101 194.89 73.6201 194.87 75.7501ZM231.25 202.82C244.14 206.51 253.49 208.68 254.16 208.05C254.6 207.63 255.63 202.89 256.43 197.5C258.04 186.8 259.77 182.16 262.88 180.22C265.81 178.39 266.16 180.07 265.64 193.47L265.19 204.91L267.86 205.5C269.08 205.77 271.19 205.97 272.95 206.01C267.64 206.04 264.74 206.7 263.3 208.06C261.43 209.81 260.66 209.9 255.3 208.92C249.22 207.81 236.33 204.56 231.86 203.02C231.71 202.97 231.51 202.9 231.25 202.82ZM282.82 37.3701C282.91 38.4501 282.67 39.0301 282.11 39.1101C282 39.1301 281.74 39.1601 281.37 39.1901C282.1 38.7201 282.67 38.0701 282.82 37.3701ZM285.18 206.63C280.63 206.25 276.94 206.04 273.95 206.02C275.84 205.98 280.89 206.25 285.18 206.61C289.04 206.94 291.09 207.2 292.41 207.76C291.1 207.21 289.04 206.94 285.18 206.63ZM277.18 39.4701C276.85 39.4901 276.51 39.5101 276.17 39.5301C275.81 39.5501 275.46 39.5801 275.13 39.6001C275.97 39.5101 276.67 39.4601 277.18 39.4701ZM281.67 32.8501C281.05 31.1201 280.24 29.0601 279.36 27.0001C280.33 29.2801 281.1 31.2301 281.67 32.8501Z" fill="#844607"/>
<path d="M271.95 40.04C273.14 39.85 274.22 39.7 275.13 39.6C275.46 39.58 275.81 39.55 276.17 39.53C276.51 39.51 276.85 39.49 277.18 39.47C277.6 39.48 277.89 39.52 278.03 39.61C278.12 39.66 278.2 39.7 278.29 39.74L278.21 39.73C273.73 39.54 272.37 39.88 271.02 41.5C270.1 42.6 266.66 45.49 263.36 47.91C254.69 54.29 245.49 62.35 236.43 71.5C211.89 96.28 201.04 111.72 189.44 138.36C184.49 149.74 172.86 182.75 172.86 185.44C172.86 185.96 173.07 186.33 173.56 186.58C172.73 186.36 172.03 186.07 171.61 185.75C170.14 184.62 170.13 184.11 171.46 180.5C172.28 178.3 175.11 169.98 177.76 162C185.31 139.25 196.1 116.89 207.03 101.34C217.2 86.87 243.2 60.04 258.23 48.5C265.7 42.77 268.53 40.82 271.95 40.04ZM282.82 37.37C282.85 37.26 282.86 37.14 282.86 37.02C282.86 36.47 282.4 34.9 281.67 32.85C281.1 31.23 280.33 29.28 279.36 27C275.56 18.11 275.14 16 277.2 16C278.66 16 289.85 28.89 294.34 35.75C296.36 38.83 298.12 40.26 300.74 40.95C302.73 41.47 308.17 42.88 312.82 44.07C317.47 45.26 321.97 46.58 322.82 46.99C323.67 47.4 326.52 48.7 329.15 49.88C331.79 51.05 338 54.49 342.96 57.51C352.13 63.1 353.72 63.78 353.85 61.82C353.86 61.87 353.86 61.92 353.86 61.96C353.86 62.99 354.42 64.05 355.11 64.32C355.8 64.58 355.01 64.65 353.36 64.47C351.71 64.29 349.86 64.11 349.25 64.07C348.63 64.03 347.06 62.96 345.75 61.69C342.2 58.26 337.25 55 335.58 55C333.84 55 324.79 50.11 323.36 48.4C322.81 47.74 320.78 46.97 318.86 46.7C307.17 45.04 301.03 43.75 298.63 42.42C297.14 41.59 295.6 41.05 295.22 41.21C294.62 41.46 290.42 34.93 290.74 34.25C291.33 33.02 290.47 31.8 288.49 31.05C286.7 30.37 286.19 29.51 286.41 27.53C286.63 25.49 286.3 24.97 284.93 25.2C283.96 25.37 282.47 24.92 281.62 24.21C280.29 23.11 280.09 23.27 280.21 25.37C280.29 26.71 280.77 27.55 281.28 27.24C281.79 26.93 281.91 27.42 281.56 28.34C281.21 29.25 281.31 30 281.79 30C283.02 30 284.51 35.05 284.08 37.73C283.8 39.5 283.36 39.87 279.95 39.8C280.44 39.68 280.93 39.47 281.37 39.19C281.74 39.16 282 39.13 282.11 39.11C282.67 39.03 282.91 38.45 282.82 37.37ZM373.83 59.12C373.3 58.44 372.68 57.91 372.1 57.8C370.77 57.53 368.4 53.67 360.38 38.75C358.97 36.14 358.31 34 358.89 34C359.48 34 358.7 32.83 357.16 31.4C355.62 29.98 354.3 28.4 354.24 27.9C354.17 27.41 354.05 26.48 353.98 25.83C353.92 25.19 353.58 24.95 353.24 25.29C352.52 26.01 349.86 23.58 349.86 22.19C349.86 21.67 349.17 20.67 348.32 19.96C345.97 18.02 344.83 19.95 345.8 24.25C346.64 27.96 345.51 29.64 344.46 26.25C344.17 25.29 344.12 26.64 344.37 29.25C344.64 32.12 344.42 34 343.8 34C343.16 34 343.02 35.35 343.43 37.5C343.79 39.43 343.7 41 343.22 41C341.86 41 342.25 49.3 343.63 49.76C344.31 49.98 344.86 51.01 344.86 52.04C344.86 53.12 346.74 55.2 349.36 57C350.9 58.06 352.18 59.21 352.98 60.2C351.78 58.94 349.48 57.1 346.86 55.36C342.23 52.28 339.86 50.06 339.86 48.78C339.86 45.5 345.01 15.58 345.82 14.11C347.27 11.5 361.69 35.28 373.83 59.12ZM233.22 203.38C235.41 203.88 237.78 204.19 239.3 204.14C243.12 204 248.86 205.81 248.86 207.15C248.86 207.51 249.71 207.59 250.74 207.32C252.16 206.95 252.79 205.54 253.3 201.66C255 188.58 256.77 182.68 260.04 179.31C261.81 177.49 263.97 176 264.86 176C268.37 176 268.75 177.89 268.14 192.2L267.58 205.44L265.19 204.91L265.64 193.47C266.16 180.07 265.81 178.39 262.88 180.22C259.77 182.16 258.04 186.8 256.43 197.5C255.63 202.89 254.6 207.63 254.16 208.05C253.52 208.64 245.08 206.73 233.22 203.38ZM448.86 234.35C443.93 230.9 428.1 222 426.9 222C426.35 222 422.63 220.48 418.63 218.62C415.29 217.06 409.55 215 404.78 213.61C405.24 213.74 405.72 213.86 406.23 214C411.25 215.31 416.03 216.46 416.86 216.55C419.42 216.83 426.86 220.17 426.86 221.04C426.86 221.92 430.83 223.54 432.13 223.19C433.45 222.84 440.26 226.67 442.26 228.89C444.56 231.43 445 231.54 444.16 229.34C443.75 228.27 443.91 227.91 444.62 228.35C445.23 228.73 445.96 228.64 446.26 228.17C446.55 227.69 445.74 226.74 444.46 226.05C441.8 224.63 434.22 211.71 435.75 211.2C437.18 210.73 434.88 206 433.23 206C431.49 206 428.82 200.74 429.06 197.81C429.32 194.75 424.83 184 423.3 184C422.64 184 421.53 182.61 420.82 180.91C419.75 178.33 419.77 177.67 420.95 176.92C421.34 176.68 421.58 176.49 421.67 176.36C423.5 181 425.12 185.14 426.03 187.5C430.49 199.06 438.92 215.25 446.36 226.54C449.92 231.94 452.73 236.46 452.6 236.57C452.47 236.69 450.78 235.69 448.86 234.35ZM249.36 169.75C253.02 166.59 254.01 161.18 252.79 151.11C251.57 141.11 249.92 136.74 246.48 134.49C243.65 132.63 239.61 133.1 236.9 135.48C238.98 132.84 241.81 130 242.69 130C243.81 130.01 250.54 136.53 251.74 138.77C252.35 139.92 252.86 142.81 252.87 145.18C252.87 147.56 253.54 150.79 254.37 152.36C256.4 156.26 256.24 160.94 253.91 166.39C252.49 169.7 251.27 171.08 249.41 171.47C248.01 171.76 245.77 172.22 244.44 172.5C241.1 173.19 236.02 168.85 235.92 165.22C235.78 160.34 235.54 159 234.81 159C234.42 159 233.82 158.21 233.48 157.25C233.14 156.29 232.6 154.94 232.28 154.25C231.93 153.51 232.39 153 233.37 153C234.33 153 234.72 152.67 234.71 151.05C234.8 152.26 234.9 153.58 235.03 155.01C235.85 164.42 237.31 167.65 241.81 170.03L241.92 170.09C244.29 171.34 245.37 171.92 246.34 171.77C247.18 171.64 247.93 170.98 249.36 169.75ZM377.02 89.6C377.1 89.16 377.57 89 378.36 89C379.19 89 379.86 88.27 379.86 87.38C379.86 86.05 380.13 85.98 381.36 87C382.19 87.68 382.86 87.88 382.86 87.43C382.86 86.98 383.53 87.49 384.36 88.56C385.69 90.3 385.7 90.13 384.44 87C383.67 85.07 380.95 79.01 378.4 73.52C375.85 68.03 374.21 63.38 374.76 63.2C375.24 63.04 375.3 62.43 375.11 61.66C378.01 67.42 380.73 73.13 383.08 78.42C390.32 94.73 392.76 101 391.87 101C391.39 101 388.87 98.3 386.28 95C382.9 90.7 380.9 89 379.21 89C378.22 89 377.37 89.25 377.02 89.6ZM278.36 206.15C287.35 206.31 293.17 206.91 294.08 207.82C294.73 208.47 298.2 209.04 301.81 209.08C305.41 209.12 307.8 209.38 307.11 209.66C306.42 209.94 305.86 210.62 305.86 211.18C305.86 211.44 306.29 211.6 307.2 211.65C307.07 211.66 306.94 211.66 306.82 211.67C296.37 212.27 296.26 212.25 294.63 209.77C294 208.81 293.43 208.2 292.41 207.76C291.09 207.2 289.04 206.94 285.18 206.61C282.92 206.42 280.46 206.25 278.36 206.15ZM328.24 118.2C327.5 118.36 327.12 118.61 327.29 118.89C327.59 119.37 326.83 120.04 325.6 120.37C322.14 121.3 318.05 121.11 317.35 119.99C316.23 118.17 317.87 115.24 320.64 114.11C323.12 113.1 329.01 113.36 334.08 114.32C333.61 114.26 333.12 114.21 332.61 114.18C324.38 113.58 316.46 117.27 319.49 120.29C319.83 120.64 321.38 120.26 322.94 119.46C324.12 118.85 326.09 118.42 328.24 118.2ZM345.57 125.89C344.96 126.5 343.99 126.99 343.41 126.97C341.55 126.92 338.86 124.94 338.86 123.62C338.86 121.2 334.85 118.36 331.18 118.03C333.93 117.99 336.54 118.29 337.81 118.97C338.81 119.51 340.59 121.58 341.77 123.58C343.49 126.49 344.19 126.97 345.31 126.04C345.61 125.8 345.82 125.55 345.97 125.28C345.88 125.51 345.74 125.72 345.57 125.89ZM402.23 212.91L402.11 212.88C397.02 211.59 392.97 210.21 393.11 209.82C393.25 209.44 394.93 208.06 396.85 206.77C398.77 205.49 400.48 203.72 400.65 202.85C400.88 201.66 398.98 200.92 395.49 200.6C398.34 200.71 400.27 201.01 400.78 201.52C402.24 202.98 400.93 207 398.99 207C397.99 207 397.31 207.89 397.23 209.3C397.13 210.98 397.67 211.6 402.23 212.91ZM230.3 115.5C233.15 112.47 234.22 112 238.28 112C238.45 112 238.61 112 238.77 112.01C238.22 112.13 238.02 112.45 238.36 113C238.71 113.56 237.93 114 236.59 114C235.28 114 233.15 115.12 231.86 116.5C230.57 117.88 228.46 119 227.19 119C226.77 119 226.41 118.94 226.11 118.84C226.98 118.68 228.34 117.57 230.3 115.5ZM204.52 194.32C205.75 194.8 208.42 195.29 210.81 195.45C215.72 195.78 222.86 198.55 222.86 200.11C222.86 200.17 222.87 200.22 222.88 200.28C221.43 199.84 219.89 199.39 218.36 198.94C212.31 197.18 206.24 195.17 204.86 194.49C204.75 194.43 204.64 194.38 204.52 194.32ZM421.58 176.12C421.4 176.05 421.04 176.02 420.5 176.02C419 176 418.72 175.41 419.07 173C419.39 170.81 419.11 170 418.02 170C417.2 170 416.81 169.72 417.15 169.38C417.49 169.04 417.11 168.11 416.31 167.31C414.66 165.65 414.41 164 415.81 164C416.24 164 416.32 163.35 416.08 162.27C416.31 162.85 416.54 163.43 416.77 164C418.31 167.87 420.02 172.17 421.58 176.12ZM326.77 172.48C326.42 172.82 326.08 173.13 325.74 173.43C327.7 170.29 331.11 160.25 332.68 152.87C332.48 154.45 332.24 156.13 331.97 157.83C330.3 168.33 329.92 169.4 326.77 172.48ZM404.74 133.85C403.9 132.22 402.86 131 402.24 131C400.48 131 398.17 126.73 399.67 126.23C400.22 126.05 400.32 125.41 400.12 124.62C401.8 127.73 403.35 130.83 404.74 133.85ZM319.71 176.52C318.03 176.75 316.52 176.33 315.33 175.23C314.25 174.22 312.57 173.1 311.61 172.73C309.7 172 309.17 168 310.98 168C311.35 168 311.58 167.71 311.67 167.18C312.01 170.58 313.15 173.19 315.09 175C316.3 176.13 317.96 176.62 319.71 176.52ZM414.93 159.36C414.41 158.54 413.82 158 413.37 158C411.78 158 410.45 154.88 411.7 154.08C412.23 153.74 411.27 150.26 409.24 144.83C410.63 148.44 412.77 153.9 414.93 159.36ZM398.64 121.91C398.05 121.22 397.35 120.66 396.66 120.44C395.56 120.09 394.89 119.1 395.06 118.09C395.28 116.79 393.4 113.05 390.39 108.44C393.27 112.74 396.07 117.31 398.64 121.91ZM254.05 160.5C254.03 162.15 254.24 162.95 254.52 162.27C254.79 161.59 254.81 160.24 254.55 159.27C254.3 158.3 254.08 158.85 254.05 160.5ZM235.07 138.15C234.37 140.15 234.23 143.27 234.56 148.77C234.51 148.31 234.45 147.81 234.39 147.25C234.02 144.08 234.16 140.34 234.7 138.91C234.79 138.69 234.91 138.43 235.07 138.15ZM315.62 146.4C316.21 144.81 316.79 143.51 317.31 142.71C317.76 142.04 318.39 141.39 319.15 140.82C317.76 141.98 316.68 143.7 315.62 146.4ZM311.57 165.32C311.57 165.29 311.56 165.26 311.55 165.22C311.35 164.2 311.58 162.04 312.07 159.43C311.72 161.58 311.55 163.55 311.57 165.32ZM333.29 145.15C333.12 144.14 332.79 143.27 332.3 142.49C332.75 143.12 333.08 143.74 333.21 144.24C333.25 144.43 333.28 144.74 333.29 145.15ZM408.41 142.66C407.54 140.45 406.54 137.98 405.41 135.33C406.43 137.62 407.36 139.86 408.16 142C408.23 142.2 408.32 142.42 408.41 142.66ZM241.99 112.38C243.61 112.76 245.07 113.43 246.6 114.47C245.23 113.54 243.51 112.81 241.99 112.38ZM224.95 117.76C224.35 116.23 225.46 113.54 228.11 111.06C226.16 112.89 224.86 115.08 224.86 116.55C224.86 117.03 224.89 117.43 224.95 117.76ZM384.38 100.06C383.74 99.25 383.09 98.44 382.43 97.63C381.84 96.91 381.3 96.25 380.82 95.64C381.1 95.99 381.39 96.34 381.68 96.7C382.58 97.77 383.48 98.9 384.38 100.06ZM342.29 117.34C341.7 116.89 341.05 116.49 340.34 116.13C340.87 116.37 341.33 116.62 341.69 116.88C341.9 117.03 342.1 117.18 342.29 117.34ZM345.32 206.32C340.95 207.08 337 207.75 333.41 208.33C336.99 207.74 340.96 207.07 345.32 206.32ZM345.99 122.9C345.94 122.7 345.87 122.48 345.8 122.25C345.87 122.47 345.94 122.69 345.99 122.9ZM203.58 193.9C203.71 193.95 203.83 194 203.93 194.05C203.82 194 203.7 193.95 203.58 193.9Z" fill="#BF7E44"/>
<path d="M231.249 202.82C229.759 202.34 226.559 201.37 222.879 200.28C222.869 200.22 222.859 200.17 222.859 200.11C222.859 198.55 215.719 195.78 210.809 195.45C208.419 195.29 205.749 194.8 204.519 194.32C204.329 194.23 204.139 194.14 203.929 194.05C203.829 194 203.709 193.95 203.579 193.9C199.919 192.32 194.399 190.75 188.499 189.43C183.169 188.07 178.259 187 176.629 187C175.629 187 174.509 186.84 173.559 186.58C173.069 186.33 172.859 185.96 172.859 185.44C172.859 182.75 184.489 149.74 189.439 138.36C201.039 111.72 211.889 96.28 236.429 71.5C245.489 62.35 254.689 54.29 263.359 47.91C266.659 45.49 270.099 42.6 271.019 41.5C272.369 39.88 273.729 39.54 278.209 39.73L278.289 39.74C278.769 39.93 279.359 39.94 279.949 39.8C283.359 39.87 283.799 39.5 284.079 37.73C284.509 35.05 283.019 30 281.789 30C281.309 30 281.209 29.25 281.559 28.34C281.909 27.42 281.789 26.93 281.279 27.24C280.769 27.55 280.289 26.71 280.209 25.37C280.089 23.27 280.289 23.11 281.619 24.21C282.469 24.92 283.959 25.37 284.929 25.2C286.299 24.97 286.629 25.49 286.409 27.53C286.189 29.51 286.699 30.37 288.489 31.05C290.469 31.8 291.329 33.02 290.739 34.25C290.419 34.93 294.619 41.46 295.219 41.21C295.599 41.05 297.139 41.59 298.629 42.42C301.029 43.75 307.169 45.04 318.859 46.7C320.779 46.97 322.809 47.74 323.359 48.4C324.789 50.11 333.839 55 335.579 55C337.249 55 342.199 58.26 345.749 61.69C347.059 62.96 348.629 64.03 349.249 64.07C349.859 64.11 351.709 64.29 353.359 64.47C355.009 64.65 355.799 64.58 355.109 64.32C354.419 64.05 353.859 62.99 353.859 61.96C353.859 61.92 353.859 61.87 353.849 61.82C353.859 61.73 353.859 61.62 353.859 61.51C353.859 61.25 353.539 60.79 352.979 60.2C352.339 59.41 351.399 58.52 350.259 57.65C352.309 59.2 353.859 60.82 353.859 61.48C353.859 62.24 356.449 65.33 359.609 68.35C362.769 71.37 368.279 77.24 371.859 81.4C375.739 85.91 377.969 88.23 379.039 88.82C378.839 88.94 378.599 89 378.359 89C377.569 89 377.099 89.16 377.019 89.6C376.919 89.71 376.859 89.83 376.859 89.95C376.859 90.41 378.569 92.86 380.819 95.64C381.309 96.25 381.839 96.91 382.429 97.63C383.089 98.44 383.739 99.25 384.379 100.06C386.389 102.67 388.409 105.49 390.389 108.44C393.399 113.05 395.279 116.79 395.059 118.09C394.889 119.1 395.559 120.09 396.659 120.44C397.349 120.66 398.049 121.22 398.639 121.91C399.149 122.81 399.639 123.72 400.119 124.62C400.319 125.41 400.219 126.05 399.669 126.23C398.169 126.73 400.479 131 402.239 131C402.859 131 403.899 132.22 404.739 133.85C404.959 134.34 405.189 134.84 405.409 135.33C406.539 137.98 407.539 140.45 408.409 142.66C408.639 143.27 408.919 144 409.239 144.83C411.269 150.26 412.229 153.74 411.699 154.08C410.449 154.88 411.779 158 413.369 158C413.819 158 414.409 158.54 414.929 159.36C415.309 160.34 415.699 161.31 416.079 162.27C416.319 163.35 416.239 164 415.809 164C414.409 164 414.659 165.65 416.309 167.31C417.109 168.11 417.489 169.04 417.149 169.38C416.809 169.72 417.199 170 418.019 170C419.109 170 419.389 170.81 419.069 173C418.719 175.41 418.999 176 420.499 176.02C421.039 176.02 421.399 176.05 421.579 176.12L421.669 176.36C421.579 176.49 421.339 176.68 420.949 176.92C419.769 177.67 419.749 178.33 420.819 180.91C421.529 182.61 422.639 184 423.299 184C424.829 184 429.319 194.75 429.059 197.81C428.819 200.74 431.489 206 433.229 206C434.879 206 437.179 210.73 435.749 211.2C434.219 211.71 441.799 224.63 444.459 226.05C445.739 226.74 446.549 227.69 446.259 228.17C445.959 228.64 445.229 228.73 444.619 228.35C443.909 227.91 443.749 228.27 444.159 229.34C444.999 231.54 444.559 231.43 442.259 228.89C440.259 226.67 433.449 222.84 432.129 223.19C430.829 223.54 426.859 221.92 426.859 221.04C426.859 220.17 419.419 216.83 416.859 216.55C416.029 216.46 411.249 215.31 406.229 214C405.719 213.86 405.239 213.74 404.779 213.61C403.889 213.35 403.029 213.12 402.229 212.91C397.669 211.6 397.129 210.98 397.229 209.3C397.309 207.89 397.989 207 398.989 207C400.929 207 402.239 202.98 400.779 201.52C400.269 201.01 398.339 200.71 395.489 200.6C388.269 199.94 374.269 201.12 358.359 204C353.629 204.86 349.299 205.63 345.319 206.32C345.299 206.33 345.269 206.33 345.239 206.33C340.909 207.08 336.969 207.75 333.409 208.33C321.379 210.28 313.399 211.27 307.199 211.65C306.289 211.6 305.859 211.44 305.859 211.18C305.859 210.62 306.419 209.94 307.109 209.66C307.799 209.38 305.409 209.12 301.809 209.08C298.199 209.04 294.729 208.47 294.079 207.82C293.169 206.91 287.349 206.31 278.359 206.15C276.459 206.05 274.849 206 273.949 206.02C273.609 206.01 273.269 206.01 272.949 206.01C271.189 205.97 269.079 205.77 267.859 205.5L267.579 205.44L268.139 192.2C268.749 177.89 268.369 176 264.859 176C263.969 176 261.809 177.49 260.039 179.31C256.769 182.68 254.999 188.58 253.299 201.66C252.789 205.54 252.159 206.95 250.739 207.32C249.709 207.59 248.859 207.51 248.859 207.15C248.859 205.81 243.119 204 239.299 204.14C237.779 204.19 235.409 203.88 233.219 203.38C232.569 203.2 231.919 203.01 231.249 202.82ZM235.069 138.15C234.909 138.43 234.789 138.69 234.699 138.91C234.159 140.34 234.019 144.08 234.389 147.25C234.449 147.81 234.509 148.31 234.559 148.77C234.599 149.49 234.649 150.25 234.709 151.05C234.719 152.67 234.329 153 233.369 153C232.389 153 231.929 153.51 232.279 154.25C232.599 154.94 233.139 156.29 233.479 157.25C233.819 158.21 234.419 159 234.809 159C235.539 159 235.779 160.34 235.919 165.22C236.019 168.85 241.099 173.19 244.439 172.5C245.769 172.22 248.009 171.76 249.409 171.47C251.269 171.08 252.489 169.7 253.909 166.39C256.239 160.94 256.399 156.26 254.369 152.36C253.539 150.79 252.869 147.56 252.869 145.18C252.859 142.81 252.349 139.92 251.739 138.77C250.539 136.53 243.809 130.01 242.689 130C241.809 130 238.979 132.84 236.899 135.48C236.659 135.69 236.429 135.92 236.219 136.16C235.739 136.69 235.349 137.33 235.069 138.15ZM325.119 174.23C325.299 174.06 325.509 173.79 325.739 173.43C326.079 173.13 326.419 172.82 326.769 172.48C329.919 169.4 330.299 168.33 331.969 157.83C332.239 156.13 332.479 154.45 332.679 152.87C332.759 152.45 332.849 152.04 332.919 151.65C333.439 148.94 333.579 146.85 333.289 145.15C333.279 144.74 333.249 144.43 333.209 144.24C333.079 143.74 332.749 143.12 332.299 142.49C331.709 141.54 330.869 140.72 329.779 139.94C327.309 138.19 326.379 138.05 322.999 138.96C321.459 139.38 320.219 139.93 319.149 140.82C318.389 141.39 317.759 142.04 317.309 142.71C316.789 143.51 316.209 144.81 315.619 146.4C314.849 148.35 314.109 150.8 313.269 153.93C312.749 155.88 312.349 157.72 312.069 159.43C311.579 162.04 311.349 164.2 311.549 165.22C311.559 165.26 311.569 165.29 311.569 165.32C311.579 165.97 311.619 166.59 311.669 167.18C311.579 167.71 311.349 168 310.979 168C309.169 168 309.699 172 311.609 172.73C312.569 173.1 314.249 174.22 315.329 175.23C316.519 176.33 318.029 176.75 319.709 176.52C321.569 176.41 323.519 175.64 325.119 174.23ZM373.829 59.12C374.259 59.97 374.689 60.82 375.109 61.66C375.299 62.43 375.239 63.04 374.759 63.2C374.209 63.38 375.849 68.03 378.399 73.52C380.949 79.01 383.669 85.07 384.439 87C385.699 90.13 385.689 90.3 384.359 88.56C383.529 87.49 382.859 86.98 382.859 87.43C382.859 87.88 382.189 87.68 381.359 87C380.129 85.98 379.859 86.05 379.859 87.38C379.859 87.56 379.829 87.73 379.779 87.89C378.229 81.65 353.379 31.14 348.529 24.56C346.979 22.44 346.869 23.14 345.309 45.15L344.839 51.73C344.749 50.81 344.239 49.96 343.629 49.76C342.249 49.3 341.859 41 343.219 41C343.699 41 343.789 39.43 343.429 37.5C343.019 35.35 343.159 34 343.799 34C344.419 34 344.639 32.12 344.369 29.25C344.119 26.64 344.169 25.29 344.459 26.25C345.509 29.64 346.639 27.96 345.799 24.25C344.829 19.95 345.969 18.02 348.319 19.96C349.169 20.67 349.859 21.67 349.859 22.19C349.859 23.58 352.519 26.01 353.239 25.29C353.579 24.95 353.919 25.19 353.979 25.83C354.049 26.48 354.169 27.41 354.239 27.9C354.299 28.4 355.619 29.98 357.159 31.4C358.699 32.83 359.479 34 358.889 34C358.309 34 358.969 36.14 360.379 38.75C368.399 53.67 370.769 57.53 372.099 57.8C372.679 57.91 373.299 58.44 373.829 59.12ZM345.689 121.94C345.049 120.11 343.899 118.56 342.289 117.34C342.099 117.18 341.899 117.03 341.689 116.88C341.329 116.62 340.869 116.37 340.339 116.13C338.589 115.24 336.489 114.63 334.079 114.32C329.009 113.36 323.119 113.1 320.639 114.11C317.869 115.24 316.229 118.17 317.349 119.99C318.049 121.11 322.139 121.3 325.599 120.37C326.829 120.04 327.589 119.37 327.289 118.89C327.119 118.61 327.499 118.36 328.239 118.2C329.199 118.1 330.199 118.05 331.179 118.03C334.849 118.36 338.859 121.2 338.859 123.62C338.859 124.94 341.549 126.92 343.409 126.97C343.989 126.99 344.959 126.5 345.569 125.89C345.739 125.72 345.879 125.51 345.969 125.28C346.289 124.69 346.289 123.98 345.989 122.9C345.939 122.69 345.869 122.47 345.799 122.25C345.759 122.15 345.729 122.05 345.689 121.94ZM241.989 112.38C243.509 112.81 245.229 113.54 246.599 114.47C249.319 116.32 250.559 116.66 251.549 115.85C253.609 114.13 253.149 113.21 248.879 110.51C245.639 108.47 243.639 108 238.129 108C231.969 108.01 231.069 108.28 228.109 111.06C225.459 113.54 224.349 116.23 224.949 117.76C225.119 118.59 225.489 118.95 226.109 118.84C226.409 118.94 226.769 119 227.189 119C228.459 119 230.569 117.88 231.859 116.5C233.149 115.12 235.279 114 236.589 114C237.929 114 238.709 113.56 238.359 113C238.019 112.45 238.219 112.13 238.769 112.01C239.939 112.03 240.999 112.15 241.989 112.38ZM254.049 160.5C254.079 158.85 254.299 158.3 254.549 159.27C254.809 160.24 254.789 161.59 254.519 162.27C254.239 162.95 254.029 162.15 254.049 160.5Z" fill="#DD7B1B"/>
<path d="M405.6 264.35C400.11 266.77 393.76 269.64 386.36 273.02C379.98 275.93 372.1 279.41 365.54 282.24C357.07 285.76 349.41 288.53 336.36 293.03C333.67 293.96 331.07 294.83 328.56 295.63H328.54C327.99 295.81 327.45 295.98 326.92 296.15C326.36 296.32 325.81 296.49 325.27 296.66C316.85 299.23 309.39 301.07 302.35 302.24C290.09 304.12 278.07 304.26 265.8 302.57C262.66 302.04 259.96 301.25 259.32 300.61C258.53 299.82 255.52 298.4 252.62 297.45C242.83 294.26 223.76 285.95 215.04 281.08C210.26 278.41 200.31 272.95 192.92 268.95C179.05 261.43 167.18 253.02 148.61 237.55C138.57 229.18 137.86 228.35 137.86 224.97C137.86 215.94 151.77 211.21 181.11 210.26C191.27 209.94 197.86 209.33 197.86 208.72C197.86 207.45 196.6 206.47 183.98 197.98C178.28 194.14 174.45 191 175.48 191C176.13 191 177.46 191.24 179.36 191.67C185.54 193.21 194.36 195.71 204.16 198.73C206.78 199.53 209.52 200.4 212.36 201.3C221.28 204.14 231.9 207.18 241.5 209.68C247.27 211.18 252.66 212.49 257.11 213.45C259.32 213.92 259.86 214.59 259.86 216.86C259.86 220.66 262.85 223.29 266.22 222.45C268.2 221.95 269.82 222.53 273.03 224.9C278.15 228.66 279.22 228.71 283.91 225.47C286.98 223.34 287.99 223.1 290.28 223.97C294.04 225.4 296.62 223.78 297.43 219.49L298.08 216H303.92C310.73 216 330.39 213.23 354.32 208.9C373.3 205.47 387.2 203.81 389.54 204.71C390.75 205.17 390.25 206.01 387.31 208.48C381.97 212.96 382.95 215 390.45 215C401.39 215 429.73 226.41 446.49 237.56C451.11 240.63 454.67 243.5 454.4 243.93C454.14 244.36 451.66 244.49 448.89 244.23C444.57 243.81 443.86 243.99 443.86 245.51C443.86 246.48 444.65 247.86 445.61 248.57C445.68 248.62 445.74 248.67 445.8 248.71C446.36 249.12 446.74 249.4 446.73 249.65C446.7 250.05 445.71 250.39 442.9 251.05C441.43 251.4 439.46 251.84 436.86 252.41C430.82 253.76 422.53 256.86 405.6 264.35ZM285.96 269.32C292.47 265.82 303.35 255.71 307.39 249.38C309.28 246.43 312.86 241.52 315.34 238.47C320.23 232.47 320.68 231.25 318.33 230.35C317.36 229.98 315.44 231.15 313.15 233.52C311.14 235.58 306.54 238.67 302.93 240.36C295.92 243.66 294.72 243.76 273.72 242.8C262.52 242.29 254.29 238.39 246.35 229.82C241.34 224.4 237.86 222.48 237.86 225.13C237.86 225.75 239.6 229.46 241.72 233.38C243.84 237.29 247.31 244.33 249.42 249C254.76 260.78 258.15 265.3 264.14 268.56C273.32 273.55 277.78 273.71 285.96 269.32ZM386.71 367.27C386.2 370.42 384.38 375.69 381.68 382.03C379.14 387.81 375.44 395.55 373 400.16C368.33 409.04 368.05 409.98 367.56 419.12C367 429.38 364.69 435.95 360.92 437.97L360.79 438.04C359.77 438.58 359.17 438.9 358.62 438.84C358.39 438.82 358.16 438.73 357.91 438.56C357.62 438.34 357.29 438 356.82 437.53C356.58 437.27 356.32 436.96 356.01 436.61C355.47 435.72 355.98 435.03 358.01 433.01C361.34 429.67 361.68 425.65 359.36 417C358.55 413.97 357.88 409.7 357.88 407.5C357.87 400.76 361.74 386.91 365.56 380.03C370.71 370.73 382.68 353.52 383.94 353.56C385.48 356.56 386.3 359.68 386.58 363.29C386.7 364.85 386.77 366.09 386.71 367.27ZM294.26 326.47C292.17 327.75 290.74 328.5 288.86 328.96H288.85C286.83 329.45 284.3 329.61 279.89 329.76C272.98 329.98 270.08 329.71 269.36 328.78C266.78 325.45 263.86 318.97 263.86 316.56C263.86 315.1 264.51 312.64 265.31 311.09L266.76 308.29L281.67 307.76C284.21 307.8 286.65 307.76 288.95 307.61C292.8 307.37 297.96 306.8 302.95 306.12C309.46 305.32 315.07 304.33 318.36 303.32C320.38 302.7 303.94 320.64 300.79 322.5C299.86 323.05 296.92 324.84 294.26 326.47ZM194.87 75.75C194.89 73.62 199.56 64.31 204.26 57.05C213.29 43.1 232.5 20 235.08 20C236.03 20 236.09 28.98 235.21 39.41L234.56 47.12L229.71 49.58C227.04 50.93 224.86 52.37 224.86 52.78C224.86 53.19 221.16 55.97 216.65 58.96C212.13 61.94 205.6 67.22 202.13 70.69C195.5 77.32 194.85 77.77 194.87 75.75ZM344.86 52.04C344.86 51.93 344.85 51.83 344.84 51.73L345.31 45.15C346.87 23.14 346.98 22.44 348.53 24.56C353.38 31.14 378.23 81.65 379.78 87.89C379.66 88.29 379.39 88.63 379.04 88.82C377.97 88.23 375.74 85.91 371.86 81.4C368.28 77.24 362.77 71.37 359.61 68.35C356.45 65.33 353.86 62.24 353.86 61.48C353.86 60.82 352.31 59.2 350.26 57.65C349.97 57.43 349.67 57.21 349.36 57C346.74 55.2 344.86 53.12 344.86 52.04ZM242.94 369.34C244.36 372.18 245.82 375.38 247.04 378.44C249.17 384.15 250.45 389.78 250.88 395.3C251.26 402.22 250.38 409.37 248.31 415.72C247.3 418.64 246.02 421.5 244.46 424.3C239.24 433.17 237.59 435 234.97 434.92C233.54 434.88 232.94 434.61 233.64 434.33C235.65 433.52 239.39 425.23 241.47 417C242.89 411.34 243.35 406.06 243.31 395.5C243.26 380.82 241.61 371.48 237.73 363.78C236.29 360.93 236.18 360.19 237.27 360.6C237.57 360.72 237.96 361.1 238.43 361.69C240.1 364.25 241.6 366.8 242.94 369.34ZM231.17 392.38C231.19 392.58 231.21 392.79 231.23 393C231.38 394.42 231.47 395.83 231.5 397.22C231.59 401.09 231.26 405.14 230.57 408.98C229.72 413.37 228.31 417.59 226.35 421.62C222.33 429.86 215.93 437.01 212.61 436.97C210.59 436.94 210.54 436.83 212.12 435.91C214.79 434.36 221.21 425.12 223.53 419.5C226.9 411.32 228.26 400.57 226.97 392.26C225.42 382.26 225.47 381.81 228.11 382.18C229.35 382.36 230.39 383.17 230.42 384C230.44 384.33 230.5 385.17 230.61 386.33C230.58 387.55 230.78 389.29 231.13 392.02C231.14 392.14 231.16 392.26 231.17 392.38ZM268.66 252.07C262.12 249.98 255.22 246.16 252.45 243.1C250.23 240.65 251.45 240.32 254.6 242.53C258.65 245.37 265.31 247.19 272.86 247.52C276.98 247.7 282.88 248.16 285.97 248.54C289.98 249.03 293.21 248.75 297.33 247.55C300.49 246.63 303.26 246.07 303.49 246.3C304.39 247.2 300.99 248.97 293.67 251.43C284.56 254.49 276.84 254.68 268.66 252.07ZM343.56 416.12C343.73 421.07 344.35 422.86 346.06 426.91C347.43 430.16 348.06 432.59 347.97 434.26C347.86 435.37 347.37 436.16 346.49 436.74C346.07 436.91 345.56 437 344.96 437C343.56 437 343.25 436.43 343.61 434.5C343.88 433.13 343.37 430.49 342.49 428.62C339.35 422.01 337.61 412.82 338.11 405.52C338.59 398.58 341.26 390 342.95 390C343.16 390 343.34 391.38 343.45 393.67C343.39 396.08 343.38 399.34 343.38 403.73C343.39 409.46 343.42 413.28 343.56 416.12ZM207.18 409.79C206.98 415.15 206.53 419.12 205.61 422.53L205.58 422.6C202.97 430.08 198.31 437 195.88 437C194.77 437 193.86 436.68 193.86 436.3C193.86 435.91 195.17 434.22 196.76 432.55C201.8 427.26 203.11 421.44 203.37 403.18C203.5 394.2 204.03 386.43 204.56 385.9C205.09 385.37 206.23 385.21 207.09 385.54C208.34 386.01 208.48 386.8 207.78 389.32C207.3 391.07 207.01 398.12 207.13 405C207.16 406.79 207.18 408.37 207.18 409.79ZM319.94 157.6C318.64 156.03 319.18 152.45 321.58 146.75C322.77 143.93 323.75 143 325.51 143C327.64 143 327.86 143.44 327.86 147.6C327.86 155.98 323.34 161.69 319.94 157.6ZM241.54 152.54C239.72 150.71 238.37 143.13 239.33 140.1C239.77 138.72 240.83 138 242.45 138C245.61 138 247.06 141.6 246.66 148.43C246.33 153.93 244.45 155.45 241.54 152.54ZM323.32 420.92C323.88 422 324.17 423.73 324.22 425.64C324.07 425.9 323.85 426.15 323.57 426.43C322.22 427.78 321.89 427.59 320.51 424.68C316.99 417.25 315.32 400.47 318.22 401.58C319.08 401.91 319.8 404.49 320.18 408.52C320.25 409.25 320.35 410.04 320.49 410.87C321.11 415.26 322.02 418.41 323.32 420.92ZM251.53 378.02C251.59 378.01 251.65 378 251.71 378C251.78 378 251.87 378.03 251.98 378.07C253.88 379.11 260.93 387.19 262.97 390.64C263.23 391.1 263.41 391.47 263.48 391.75C263.87 393.23 263.76 395.23 263.35 396.76C263.03 397.54 262.4 398.29 261.6 398.94C261.18 398.71 260.86 397.9 260.86 396.93C260.86 394.28 259.39 391.48 255.37 386.5C253.73 384.47 252.47 382.46 251.75 380.91C251.47 379.37 251.37 378.25 251.53 378.02ZM290.55 396.63C290.36 396.13 290.18 395.52 290.06 394.95C290.03 393.53 290.79 391.84 292.36 389.65C293.63 388.01 295.23 386.06 296.81 384.24C302.35 378 304.09 376.74 303.08 379.77C302.45 380.96 301.19 382.53 299.72 383.77C296.5 386.48 292.98 391.9 291.96 395.73C291.65 396.89 291.44 397.5 291.23 397.61C291 397.36 290.8 397.1 290.63 396.84L290.55 396.63ZM-55.9099 545.43C-55.6399 546.84 -55.8199 548 -56.3099 548C-57.7099 548 -58.5099 544.97 -57.3999 543.86C-56.7299 543.19 -56.2399 543.71 -55.9099 545.43Z" fill="#F0ECE6"/>
</g>
<defs>
<clipPath id="clip0_806_366">
<rect width="555" height="442" fill="white"/>
</clipPath>
</defs>
</svg>
