<svg xmlns="http://www.w3.org/2000/svg" viewBox="0 0 28 28" id="List-Search-Fill--Streamline-Mingcute-Fill" height="28" width="28">
  <desc>
    List Search Fill Streamline Icon: https://streamlinehq.com
  </desc>
  <g fill="none" fill-rule="nonzero">
    <path d="M28 0v28H0V0h28ZM14.693 27.134333333333334l-0.014000000000000002 0.0023333333333333335 -0.08283333333333333 0.04083333333333334 -0.023333333333333334 0.004666666666666667 -0.016333333333333335 -0.004666666666666667 -0.08283333333333333 -0.042c-0.011666666666666667 -0.0035000000000000005 -0.022166666666666668 0 -0.028000000000000004 0.007000000000000001l-0.004666666666666667 0.011666666666666667 -0.019833333333333335 0.49933333333333335 0.005833333333333334 0.023333333333333334 0.011666666666666667 0.015166666666666667 0.12133333333333333 0.08633333333333333 0.0175 0.004666666666666667 0.014000000000000002 -0.004666666666666667 0.12133333333333333 -0.08633333333333333 0.014000000000000002 -0.018666666666666668 0.004666666666666667 -0.019833333333333335 -0.019833333333333335 -0.4981666666666667c-0.0023333333333333335 -0.011666666666666667 -0.0105 -0.019833333333333335 -0.018666666666666668 -0.021Zm0.30800000000000005 -0.13183333333333336 -0.016333333333333335 0.0023333333333333335 -0.21466666666666667 0.1085 -0.011666666666666667 0.011666666666666667 -0.0035000000000000005 0.012833333333333334 0.021 0.5016666666666667 0.005833333333333334 0.014000000000000002 0.009333333333333334 0.009333333333333334 0.23450000000000004 0.10733333333333334c0.014000000000000002 0.004666666666666667 0.026833333333333334 0 0.03383333333333334 -0.009333333333333334l0.004666666666666667 -0.016333333333333335 -0.03966666666666667 -0.7163333333333334c-0.0035000000000000005 -0.014000000000000002 -0.011666666666666667 -0.023333333333333334 -0.023333333333333334 -0.025666666666666667Zm-0.8341666666666667 0.0023333333333333335a0.026833333333333334 0.026833333333333334 0 0 0 -0.0315 0.007000000000000001l-0.007000000000000001 0.016333333333333335 -0.03966666666666667 0.7163333333333334c0 0.014000000000000002 0.008166666666666668 0.023333333333333334 0.019833333333333335 0.028000000000000004l0.0175 -0.0023333333333333335 0.23450000000000004 -0.1085 0.011666666666666667 -0.009333333333333334 0.0035000000000000005 -0.012833333333333334 0.021 -0.5016666666666667 -0.0035000000000000005 -0.014000000000000002 -0.011666666666666667 -0.011666666666666667 -0.21466666666666667 -0.10733333333333334Z" stroke-width="1.1667"></path>
    <path fill="#e6e6e6" d="M4.666666666666667 4.083333333333334a1.75 1.75 0 1 0 0 3.5h18.666666666666668a1.75 1.75 0 0 0 0 -3.5H4.666666666666667Zm4.666666666666667 16.333333333333336a1.75 1.75 0 0 1 0 3.5H4.666666666666667a1.75 1.75 0 0 1 0 -3.5h4.666666666666667Zm8.166666666666668 -10.5a6.416666666666667 6.416666666666667 0 0 1 5.6035 9.545666666666667l1.4676666666666667 1.4665a1.75 1.75 0 0 1 -2.4756666666666667 2.4756666666666667l-1.4665 -1.4676666666666667A6.416666666666667 6.416666666666667 0 1 1 17.5 9.916666666666668Zm0 3.5a2.916666666666667 2.916666666666667 0 1 0 0 5.833333333333334 2.916666666666667 2.916666666666667 0 0 0 0 -5.833333333333334Zm-9.333333333333334 -1.1666666666666667a1.75 1.75 0 0 1 0 3.5H4.666666666666667a1.75 1.75 0 0 1 0 -3.5h3.5Z" stroke-width="1.1667"></path>
  </g>
</svg>