<svg width="162" height="162" viewBox="0 0 162 162" fill="none" xmlns="http://www.w3.org/2000/svg">
<path d="M7.34216 84.4347C7.34216 41.8577 41.8577 7.34215 84.4347 7.34215V7.34215C127.012 7.34215 161.527 41.8577 161.527 84.4347V84.4347C161.527 127.012 127.012 161.527 84.4347 161.527V161.527C41.8577 161.527 7.34216 127.012 7.34216 84.4347V84.4347Z" fill="#8BD959"/>
<path fill-rule="evenodd" clip-rule="evenodd" d="M0.917768 77.0925C0.917768 119.163 35.0224 153.267 77.0925 153.267C119.163 153.267 153.267 119.163 153.267 77.0925C153.267 35.0224 119.163 0.917768 77.0925 0.917768C35.0224 0.917768 0.917768 35.0224 0.917768 77.0925ZM77.0925 0C34.5155 0 0 34.5155 0 77.0925C0 119.67 34.5155 154.185 77.0925 154.185C119.67 154.185 154.185 119.67 154.185 77.0925C154.185 34.5155 119.67 0 77.0925 0Z" fill="#F2FDEB"/>
<path d="M49.5595 122.614C49.6378 116.975 49.7161 112.354 49.7945 108.752C49.8728 105.149 49.9119 102.173 49.9119 99.8238C49.9902 97.396 50.0294 95.3207 50.0294 93.5977C50.0294 91.7964 50.0294 89.9951 50.0294 88.1939C50.0294 86.3143 50.0294 84.0823 50.0294 81.4978C50.0294 78.8351 50.0294 76.6031 50.0294 74.8018C50.0294 72.9222 50.0294 71.1209 50.0294 69.398C50.0294 67.5967 49.9902 65.5213 49.9119 63.1718C49.9119 60.744 49.8728 57.7289 49.7945 54.1263C49.7161 50.5238 49.6378 45.9423 49.5595 40.3818H83.1572C91.0671 40.3818 96.98 42.1831 100.896 45.7856C104.812 49.3882 106.77 54.6745 106.77 61.6447C106.77 63.9158 106.456 66.1479 105.83 68.3407C105.203 70.4552 104.107 72.4915 102.54 74.4494C101.052 76.329 98.8987 77.9736 96.0794 79.3833C99.8385 80.3231 102.854 81.8111 105.125 83.8473C107.396 85.8052 109.08 88.1939 110.176 91.0132C111.273 93.7543 111.821 96.8087 111.821 100.176C111.821 105.032 110.881 109.143 109.002 112.511C107.122 115.879 104.342 118.424 100.661 120.147C97.0583 121.792 92.516 122.614 87.0338 122.614H49.5595ZM75.5213 102.643C79.5938 102.643 82.9222 102.604 85.5067 102.526C88.0911 102.447 90.0882 102.33 91.4979 102.173C92.9859 101.938 94.1214 101.703 94.9046 101.468C95.7661 101.234 96.5101 100.959 97.1366 100.646C98.468 100.098 99.5644 99.1581 100.426 97.8268C101.287 96.4954 101.718 94.8507 101.718 92.8928C101.718 91.2482 101.405 89.8777 100.778 88.7812C100.23 87.6848 99.5253 86.8233 98.6638 86.1968C97.8023 85.5703 97.0192 85.1004 96.3143 84.7871C95.6095 84.4738 94.8263 84.1997 93.9648 83.9648C93.1817 83.7298 92.0852 83.5341 90.6755 83.3774C89.2658 83.2208 87.3471 83.1425 84.9193 83.1425C82.4915 83.0642 79.3588 83.025 75.5213 83.025C71.7622 83.025 68.747 83.0642 66.4758 83.1425C64.2046 83.1425 62.4425 83.2208 61.1895 83.3774C60.0147 83.5341 59.1141 83.7298 58.4876 83.9648C57.9393 84.1214 57.4695 84.3564 57.0779 84.6696C56.8429 84.8263 56.5688 85.1395 56.2555 85.6094C56.0206 86.001 55.8248 86.7842 55.6682 87.9589C55.5899 89.0553 55.5507 90.7 55.5507 92.8928C55.5507 95.0074 55.5899 96.6129 55.6682 97.7093C55.8248 98.7274 56.0206 99.4714 56.2555 99.9413C56.5688 100.333 56.8429 100.646 57.0779 100.881C57.4695 101.194 57.9393 101.468 58.4876 101.703C59.1141 101.86 60.0147 102.017 61.1895 102.173C62.4425 102.33 64.2046 102.447 66.4758 102.526C68.747 102.604 71.7622 102.643 75.5213 102.643ZM74.699 77.0338C79.0847 77.0338 82.5306 76.9946 85.0368 76.9163C87.5429 76.838 89.4225 76.6814 90.6755 76.4464C91.9286 76.1332 92.9075 75.7807 93.6124 75.3892C94.7088 74.9976 95.6486 74.2536 96.4318 73.1572C97.2933 72.0607 97.724 70.5727 97.724 68.6931C97.724 66.8135 97.2933 65.3647 96.4318 64.3466C95.6486 63.2501 94.7088 62.5061 93.6124 62.1146C92.9075 61.6447 91.9286 61.2922 90.6755 61.0573C89.4225 60.8223 87.5429 60.7049 85.0368 60.7049C82.5306 60.6266 79.0847 60.5874 74.699 60.5874C70.3133 60.5874 66.9457 60.6266 64.5962 60.7049C62.3251 60.7049 60.6413 60.8223 59.5448 61.0573C58.5267 61.2922 57.7436 61.6447 57.1953 62.1146C57.0387 62.2712 56.8821 62.5453 56.7254 62.9369C56.5688 63.3285 56.4513 63.955 56.373 64.8165C56.2947 65.678 56.2555 66.9702 56.2555 68.6931C56.2555 70.4161 56.2947 71.7475 56.373 72.6873C56.4513 73.5487 56.5688 74.1753 56.7254 74.5668C56.8821 74.8801 57.0387 75.1542 57.1953 75.3892C57.7436 75.7807 58.5267 76.1332 59.5448 76.4464C60.6413 76.6814 62.3251 76.838 64.5962 76.9163C66.9457 76.9946 70.3133 77.0338 74.699 77.0338Z" fill="#F2FDEB"/>
</svg>
