<svg width="185" height="60" viewBox="0 0 185 60" fill="none" xmlns="http://www.w3.org/2000/svg">
<g clip-path="url(#clip0_1_60)">
<path d="M88.62 50.92H78.28V54.4H88.62V50.92Z" fill="#D6268D"/>
<path d="M77.65 50.92H67.32V54.4H77.65V50.92Z" fill="white"/>
<path d="M66.68 50.92H59.09V54.4H66.68V50.92Z" fill="#0AA28C"/>
<path d="M59.09 55.04H70.58V58.6H59.09V55.04Z" fill="white"/>
<path d="M71.22 55.04H75.3V58.6H71.22V55.04Z" fill="#E6A800"/>
<path d="M75.9301 55.04H91.7501V58.6H75.9301V55.04Z" fill="#D95043"/>
<path d="M92.39 55.04H97.83V58.6H92.39V55.04Z" fill="white"/>
<path d="M97.83 50.92H89.26V54.4H97.83V50.92Z" fill="white"/>
<path d="M10.84 51.65V58.6H0V0H11.67V21.02C14.07 16.39 18.79 13.65 24.42 13.65C34.1 13.65 41.39 22.67 41.39 36.41C41.39 51.06 33.86 59.83 24.01 59.83C17.97 59.83 13.09 56.68 10.85 51.64L10.84 51.65ZM28.97 36.83C28.97 25.49 25.08 20.69 19.53 20.69C15.39 20.69 11.67 24.08 11.67 31.62V41.39C11.67 49 15.23 52.65 20.11 52.65C25.49 52.65 28.97 47.93 28.97 36.84V36.83Z" fill="white"/>
<path d="M44.15 0H55.82V58.6H44.15V0Z" fill="white"/>
<path d="M101.1 14.9H111.94V23.59C114.17 17.55 119.47 13.66 126.09 13.66C134.45 13.66 140.16 19.78 140.16 29.05V58.6H128.49V30.46C128.49 24.83 125.84 21.77 120.96 21.77C116.08 21.77 112.77 25.99 112.77 33.19V58.6H101.1V14.9Z" fill="white"/>
<path d="M143.44 0H155.11V33.85L172.24 14.9H183.83L168.35 30.54L184.49 58.6H171.08L160.24 38.74L155.11 43.95V58.6H143.44V0Z" fill="white"/>
</g>
<defs>
<clipPath id="clip0_1_60">
<rect width="184.49" height="59.84" fill="white"/>
</clipPath>
</defs>
</svg>
