<svg width="429" height="139" viewBox="0 0 429 139" fill="none" xmlns="http://www.w3.org/2000/svg">
<path d="M428.691 108.8L415.923 138.592H414.771L427.539 108.8H428.691Z" fill="#E4E7ED"/>
<path d="M411.977 131.2L406.857 123.552L404.969 125.408V128.16C404.969 129.472 405.577 130.176 406.825 130.304L407.497 130.368V131.2H399.497V130.368L400.169 130.304C401.417 130.176 402.025 129.472 402.025 128.16V111.552C402.025 110.688 401.705 110.304 400.553 109.824L399.401 109.344L404.969 108V123.168L404.105 124.064V124.832L409.865 119.232C411.017 118.144 410.921 117.152 409.673 117.056L409.033 116.992V116.16H415.657V116.928C414.089 117.312 412.297 118.24 411.209 119.328L408.937 121.536L413.609 128.256C414.537 129.6 415.337 130.144 416.617 130.432V131.2H411.977Z" fill="#E4E7ED"/>
<path d="M396.404 120.576V134.56C396.404 137.056 394.548 138.752 391.796 138.752C389.716 138.752 387.988 137.632 387.988 136.256C387.988 135.392 388.628 134.72 389.396 134.72C390.484 134.72 391.028 135.488 390.9 136.832H390.292C390.292 137.536 390.932 137.792 391.764 137.792C392.884 137.792 393.46 137.088 393.46 135.712V120.8C393.46 118.912 392.404 117.824 390.58 117.824C389.268 117.824 387.924 118.592 386.964 119.872V128.16C386.964 129.472 387.508 130.176 388.66 130.304L389.236 130.368V131.2H381.492V130.368L382.164 130.304C383.412 130.176 384.02 129.472 384.02 128.16V119.552C384.02 118.688 383.796 118.432 382.548 117.824L381.396 117.28L386.964 115.84V117.728L385.972 119.072V120.064L386.612 119.2C388.148 117.024 390.068 115.808 391.988 115.808C394.772 115.808 396.404 117.568 396.404 120.576Z" fill="#E4E7ED"/>
<path d="M373.515 117.568H378.347V122.432H373.515V117.568Z" fill="#E4E7ED"/>
<path d="M370.03 122.688H359.054V123.296H360.078C360.174 126.976 362.158 129.536 364.91 129.536C367.118 129.536 368.686 128.672 369.678 126.88L369.742 126.912C369.198 129.696 367.022 131.52 364.334 131.52C361.39 131.52 358.99 130.176 357.838 127.68C355.982 130.528 354.35 131.52 352.334 131.52C349.678 131.52 348.078 130.08 348.078 127.712C348.078 125.632 349.134 124.544 352.142 123.52L357.07 121.856V120.384C357.07 118.4 355.886 117.088 354.094 117.088C352.43 117.088 350.99 117.792 350.83 118.784H351.822C352.046 120.512 351.278 121.28 350.19 121.28C349.39 121.28 348.686 120.576 348.686 119.616C348.686 117.824 351.054 115.84 354.382 115.84C356.942 115.84 358.478 116.608 359.182 118.048C360.43 116.704 362.094 115.84 363.95 115.84C367.662 115.84 370.158 118.656 370.03 122.688ZM363.726 117.12C361.742 117.12 360.43 118.72 360.142 121.568H366.894C366.894 118.976 365.582 117.12 363.726 117.12ZM350.99 127.296C350.99 128.8 351.95 129.824 353.422 129.824C354.83 129.824 356.334 128.672 357.422 126.56C357.198 125.76 357.07 124.864 357.07 123.872V122.88L353.774 124.032C351.758 124.768 350.99 125.632 350.99 127.296Z" fill="#E4E7ED"/>
<path d="M340.87 111.552C340.87 110.688 340.55 110.304 339.398 109.824L338.246 109.344L343.814 108V128.16C343.814 129.472 344.422 130.176 345.67 130.304L346.342 130.368V131.2H338.342V130.368L339.014 130.304C340.262 130.176 340.87 129.472 340.87 128.16V111.552Z" fill="#E4E7ED"/>
<path d="M328.556 131.52C327.084 131.52 325.868 131.168 324.716 130.4L322.316 131.552V111.552C322.316 110.688 321.996 110.304 320.844 109.824L319.692 109.344L325.26 108V117.792L324.268 119.264V120.256L324.908 119.296C326.476 116.928 328.108 115.84 330.124 115.84C333.74 115.84 336.332 118.88 336.332 123.072C336.332 127.936 333.036 131.52 328.556 131.52ZM328.748 117.856C327.5 117.856 326.06 118.848 325.26 120.064V129.024C326.188 129.76 327.404 130.24 328.492 130.24C331.276 130.24 333.132 127.648 333.132 123.808C333.132 120.32 331.34 117.856 328.748 117.856Z" fill="#E4E7ED"/>
<path d="M318.92 108.8L306.152 138.592H305L317.768 108.8H318.92Z" fill="#E4E7ED"/>
<path d="M0 6.4C0 2.86538 2.83553 0 6.33333 0H88.6667C92.1645 0 95 2.86538 95 6.4V89.6C95 93.1346 92.1645 96 88.6667 96H6.33333C2.83553 96 0 93.1346 0 89.6V6.4Z" fill="#E4E7ED"/>
<path d="M365.177 0V43.7645L404.196 0H426.21L391.014 38.4916L428.847 95.57H406.569L378.359 52.4646L365.177 66.8331V95.57H346.327V0H365.177Z" fill="#E4E7ED"/>
<path d="M340.327 95.57H315.808L277.58 22.6732V95.57H259.784V0H284.303L322.531 72.8968V0H340.327V95.57Z" fill="#E4E7ED"/>
<path d="M207.252 0V80.2788H253.784V95.57H188.401V0H207.252Z" fill="#E4E7ED"/>
<path d="M107 95.57V0H144.173C161.046 0 178.974 5.141 178.974 24.9141C178.974 33.8779 173.174 41.7872 168.165 45.0827C175.415 48.51 182.401 54.3101 182.401 67.3604C182.401 88.0562 165.397 95.57 145.755 95.57H107ZM125.85 53.651V80.8061H146.678C157.619 80.8061 163.156 76.0605 163.156 67.3604C163.156 58.5284 157.619 53.651 145.887 53.651H125.85ZM125.85 14.7639V39.4144H145.36C154.192 39.4144 159.596 35.0643 159.596 26.7596C159.596 19.2458 154.06 14.7639 145.36 14.7639H125.85Z" fill="#E4E7ED"/>
</svg>
