<svg width="281" height="162" viewBox="0 0 281 162" fill="none" xmlns="http://www.w3.org/2000/svg">
<path d="M7.34213 84.6951C7.34213 42.1181 41.8576 7.60255 84.4347 7.60255V7.60255C127.012 7.60255 161.527 42.1181 161.527 84.6951V84.6951C161.527 127.272 127.012 161.788 84.4347 161.788V161.788C41.8576 161.788 7.34213 127.272 7.34213 84.6951V84.6951Z" fill="#8BD959"/>
<path fill-rule="evenodd" clip-rule="evenodd" d="M0.917768 77.3529C0.917768 119.423 35.0224 153.528 77.0925 153.528C119.163 153.528 153.267 119.423 153.267 77.3529C153.267 35.2828 119.163 1.17817 77.0925 1.17817C35.0224 1.17817 0.917768 35.2828 0.917768 77.3529ZM77.0925 0.260406C34.5155 0.260406 0 34.7759 0 77.3529C0 119.93 34.5155 154.445 77.0925 154.445C119.67 154.445 154.185 119.93 154.185 77.3529C154.185 34.7759 119.67 0.260406 77.0925 0.260406Z" fill="#23470B"/>
<path d="M49.5595 122.874C49.6378 117.235 49.7161 112.615 49.7945 109.012C49.8728 105.41 49.9119 102.434 49.9119 100.084C49.9902 97.6564 50.0294 95.581 50.0294 93.8581C50.0294 92.0568 50.0294 90.2555 50.0294 88.4543C50.0294 86.5747 50.0294 84.3427 50.0294 81.7582C50.0294 79.0955 50.0294 76.8635 50.0294 75.0622C50.0294 73.1826 50.0294 71.3813 50.0294 69.6584C50.0294 67.8571 49.9902 65.7817 49.9119 63.4322C49.9119 61.0044 49.8728 57.9893 49.7945 54.3867C49.7161 50.7842 49.6378 46.2027 49.5595 40.6422H83.1572C91.0671 40.6422 96.98 42.4435 100.896 46.046C104.812 49.6486 106.77 54.9349 106.77 61.9051C106.77 64.1762 106.456 66.4082 105.83 68.6011C105.203 70.7156 104.107 72.7519 102.54 74.7098C101.052 76.5894 98.8987 78.234 96.0794 79.6437C99.8385 80.5835 102.854 82.0715 105.125 84.1077C107.396 86.0656 109.08 88.4543 110.176 91.2736C111.273 94.0147 111.821 97.0691 111.821 100.437C111.821 105.292 110.881 109.404 109.002 112.771C107.122 116.139 104.342 118.684 100.661 120.407C97.0583 122.052 92.516 122.874 87.0338 122.874H49.5595ZM75.5213 102.904C79.5938 102.904 82.9222 102.864 85.5067 102.786C88.0911 102.708 90.0882 102.59 91.4979 102.434C92.9859 102.199 94.1214 101.964 94.9046 101.729C95.7661 101.494 96.5101 101.22 97.1366 100.907C98.468 100.358 99.5644 99.4185 100.426 98.0872C101.287 96.7558 101.718 95.1111 101.718 93.1532C101.718 91.5086 101.405 90.1381 100.778 89.0416C100.23 87.9452 99.5253 87.0837 98.6638 86.4572C97.8023 85.8307 97.0192 85.3608 96.3143 85.0475C95.6095 84.7342 94.8263 84.4601 93.9648 84.2252C93.1817 83.9902 92.0852 83.7945 90.6755 83.6378C89.2658 83.4812 87.3471 83.4029 84.9193 83.4029C82.4915 83.3246 79.3588 83.2854 75.5213 83.2854C71.7622 83.2854 68.747 83.3246 66.4758 83.4029C64.2046 83.4029 62.4425 83.4812 61.1895 83.6378C60.0147 83.7945 59.1141 83.9902 58.4876 84.2252C57.9393 84.3818 57.4695 84.6168 57.0779 84.93C56.8429 85.0867 56.5688 85.3999 56.2555 85.8698C56.0206 86.2614 55.8248 87.0446 55.6682 88.2193C55.5899 89.3157 55.5507 90.9604 55.5507 93.1532C55.5507 95.2678 55.5899 96.8733 55.6682 97.9697C55.8248 98.9878 56.0206 99.7318 56.2555 100.202C56.5688 100.593 56.8429 100.907 57.0779 101.141C57.4695 101.455 57.9393 101.729 58.4876 101.964C59.1141 102.12 60.0147 102.277 61.1895 102.434C62.4425 102.59 64.2046 102.708 66.4758 102.786C68.747 102.864 71.7622 102.904 75.5213 102.904ZM74.699 77.2942C79.0847 77.2942 82.5306 77.255 85.0368 77.1767C87.5429 77.0984 89.4225 76.9418 90.6755 76.7068C91.9286 76.3936 92.9075 76.0411 93.6124 75.6496C94.7088 75.258 95.6486 74.514 96.4318 73.4176C97.2933 72.3211 97.724 70.8331 97.724 68.9535C97.724 67.0739 97.2933 65.6251 96.4318 64.607C95.6486 63.5105 94.7088 62.7665 93.6124 62.375C92.9075 61.9051 91.9286 61.5526 90.6755 61.3177C89.4225 61.0827 87.5429 60.9653 85.0368 60.9653C82.5306 60.887 79.0847 60.8478 74.699 60.8478C70.3133 60.8478 66.9457 60.887 64.5962 60.9653C62.3251 60.9653 60.6413 61.0827 59.5448 61.3177C58.5267 61.5526 57.7436 61.9051 57.1953 62.375C57.0387 62.5316 56.8821 62.8057 56.7254 63.1973C56.5688 63.5889 56.4513 64.2154 56.373 65.0769C56.2947 65.9384 56.2555 67.2306 56.2555 68.9535C56.2555 70.6765 56.2947 72.0079 56.373 72.9477C56.4513 73.8091 56.5688 74.4357 56.7254 74.8272C56.8821 75.1405 57.0387 75.4146 57.1953 75.6496C57.7436 76.0411 58.5267 76.3936 59.5448 76.7068C60.6413 76.9418 62.3251 77.0984 64.5962 77.1767C66.9457 77.255 70.3133 77.2942 74.699 77.2942Z" fill="#23470B"/>
<path d="M273.737 125C269.07 125 266.737 122.833 266.737 118.5C266.737 114.167 269.07 112 273.737 112C278.404 112 280.737 114.167 280.737 118.5C280.737 122.833 278.404 125 273.737 125Z" fill="#23470B"/>
<path d="M213.737 123.377C213.819 117.458 213.86 112.607 213.86 108.826C213.942 105.044 213.984 102.043 213.984 99.8236C214.066 97.5217 214.107 95.6719 214.107 94.2744C214.107 92.7946 214.107 91.5203 214.107 90.4516C214.107 89.3828 214.107 88.1497 214.107 86.7521C214.107 85.3545 214.107 83.5459 214.107 81.3262C214.107 79.0243 214.107 76.2703 214.107 73.0641C214.107 69.8579 214.066 66.1995 213.984 62.089C213.984 57.9785 213.942 53.4158 213.86 48.401C213.86 43.3861 213.819 37.9191 213.737 32H219.656C219.574 37.4259 219.492 42.564 219.409 47.4144C219.409 52.1826 219.368 56.5809 219.286 60.6092C219.286 64.5553 219.286 67.9259 219.286 70.7211C219.286 73.434 219.286 75.3249 219.286 76.3936C219.286 77.7912 219.327 78.8188 219.409 79.4765C219.492 80.1342 219.697 80.6685 220.026 81.0796C220.602 81.5729 221.835 81.9017 223.726 82.0661C225.699 82.2305 228.781 82.3128 232.974 82.3128C236.18 82.3128 238.647 82.2717 240.373 82.1894C242.182 82.1072 243.538 81.9428 244.443 81.6962C245.347 81.3673 246.046 80.9974 246.539 80.5863C247.361 79.9287 248.101 78.901 248.759 77.5034C249.498 76.1059 250.197 74.585 250.855 72.9408C251.513 71.3788 251.965 70.1867 252.211 69.3646C252.458 68.4603 252.705 67.5971 252.951 66.775C253.28 65.8707 253.65 64.5964 254.061 62.9522H260.227C258.583 67.556 257.144 71.4199 255.911 74.5439C254.678 77.6679 253.609 80.2164 252.705 82.1894C251.883 84.1625 251.102 85.7245 250.362 86.8754C249.622 88.0264 248.923 88.8896 248.265 89.4651C247.361 90.2872 246.21 91.0271 244.812 91.6847C243.415 92.3424 241.894 92.8357 240.25 93.1645C238.688 93.4934 237.126 93.6578 235.564 93.6578C237.126 98.0149 238.688 101.591 240.25 104.386C241.812 107.181 243.497 109.278 245.306 110.675C247.114 111.991 249.211 112.648 251.595 112.648C253.568 112.648 255.459 112.361 257.267 111.785C259.158 111.21 260.597 110.511 261.583 109.689V123.377C261.172 123.623 260.474 123.829 259.487 123.993C258.5 124.24 257.473 124.404 256.404 124.487C255.418 124.569 254.513 124.61 253.691 124.61C249.498 124.61 245.963 123.336 243.086 120.787C240.291 118.156 237.948 114.539 236.057 109.935C234.166 105.249 232.563 99.8647 231.248 93.7811C227.63 93.7811 224.918 93.8633 223.109 94.0277C221.3 94.1922 220.149 94.7676 219.656 95.7542C219.327 96.4118 219.122 97.3162 219.04 98.4671C219.04 99.618 219.04 101.427 219.04 103.893C219.04 104.468 219.04 105.537 219.04 107.099C219.122 108.661 219.163 110.47 219.163 112.525C219.245 114.498 219.327 116.471 219.409 118.444C219.492 120.417 219.574 122.061 219.656 123.377H213.737Z" fill="#23470B"/>
<path d="M156.262 123.254C156.344 119.225 156.385 115.69 156.385 112.648C156.467 109.607 156.508 106.894 156.508 104.51C156.59 102.043 156.631 99.7825 156.631 97.7272C156.631 95.5897 156.631 93.4523 156.631 91.3148C156.631 89.1773 156.631 87.081 156.631 85.0257C156.631 82.8882 156.59 80.7097 156.508 78.49C156.508 76.1881 156.467 73.7629 156.385 71.2144C156.385 68.6658 156.344 65.9118 156.262 62.9522H162.057C161.975 64.432 161.893 65.7885 161.811 67.0216C161.811 68.2548 161.811 69.3235 161.811 70.2278C161.811 72.1187 161.852 73.434 161.934 74.1739C162.016 74.8316 162.304 75.1605 162.797 75.1605C163.208 75.1605 163.619 74.9138 164.03 74.4206C164.524 73.9273 165.264 72.9819 166.25 71.5843C167.072 70.3512 168.346 68.9536 170.073 67.3916C171.799 65.7474 174.019 64.3498 176.732 63.1989C179.445 62.0479 182.733 61.4724 186.597 61.4724C190.954 61.4724 194.695 62.2534 197.819 63.8154C201.025 65.3774 203.491 67.6793 205.218 70.7211C207.026 73.6807 207.931 77.339 207.931 81.6962C207.931 85.3957 207.931 88.7252 207.931 91.6848C207.931 94.6443 207.931 97.3984 207.931 99.9469C207.931 102.413 207.931 104.838 207.931 107.223C208.013 109.524 208.095 111.991 208.177 114.621C208.26 117.17 208.342 120.047 208.424 123.254H202.382C202.464 120.212 202.546 117.54 202.628 115.238C202.71 112.854 202.752 110.716 202.752 108.826C202.834 106.935 202.875 105.167 202.875 103.523C202.875 101.797 202.875 100.07 202.875 98.3438C202.875 96.5352 202.875 94.5621 202.875 92.4246C202.875 89.1362 202.505 86.4644 201.765 84.4091C201.025 82.3539 199.833 80.833 198.189 79.8465C196.627 78.7777 194.654 78.0378 192.27 77.6268C189.968 77.2157 187.173 77.0102 183.884 77.0102C179.691 77.0102 176.156 77.4212 173.279 78.2434C170.484 78.9832 168.223 80.1753 166.497 81.8195C164.77 83.3815 163.537 85.3957 162.797 87.862C162.057 90.2461 161.687 93.0412 161.687 96.2474C161.687 97.9738 161.687 99.6592 161.687 101.303C161.687 102.865 161.687 104.633 161.687 106.606C161.77 108.579 161.852 110.881 161.934 113.512C162.016 116.142 162.098 119.39 162.181 123.254H156.262Z" fill="#23470B"/>
<path d="M115.737 123.254V112.525C117.052 112.607 118.285 112.689 119.436 112.772C120.67 112.772 121.903 112.772 123.136 112.772C125.356 112.772 126.918 112.689 127.822 112.525C128.808 112.278 129.507 111.991 129.918 111.662C130.165 111.497 130.37 111.169 130.535 110.675C130.781 110.182 130.946 109.36 131.028 108.209C131.192 106.976 131.275 105.208 131.275 102.906C131.357 100.522 131.398 97.3984 131.398 93.5345C131.48 89.6706 131.521 84.7791 131.521 78.8599C131.521 73.1052 131.48 68.2959 131.398 64.432C131.398 60.5681 131.357 57.4852 131.275 55.1833C131.275 52.8814 131.192 51.1139 131.028 49.8808C130.946 48.6476 130.781 47.7844 130.535 47.2911C130.37 46.7979 130.165 46.469 129.918 46.3046C129.507 45.8936 128.849 45.6469 127.945 45.5647C127.041 45.4003 125.643 45.3181 123.752 45.3181C122.684 45.3181 121.656 45.3181 120.67 45.3181C119.683 45.3181 118.614 45.3592 117.463 45.4414V32H136.454C136.372 34.8774 136.29 37.5081 136.207 39.8922C136.207 42.2763 136.207 44.6604 136.207 47.0445C136.207 49.3464 136.207 51.9771 136.207 54.9367C136.207 57.8963 136.207 61.3902 136.207 65.4185C136.207 69.4468 136.207 74.2972 136.207 79.9698C136.207 85.6423 136.207 90.3694 136.207 94.1511C136.207 97.8505 136.248 100.851 136.331 103.153C136.413 105.373 136.495 107.058 136.577 108.209C136.742 109.36 136.906 110.182 137.071 110.675C137.317 111.169 137.564 111.497 137.81 111.662C138.304 112.073 139.002 112.361 139.907 112.525C140.893 112.689 142.496 112.772 144.716 112.772C145.785 112.772 146.812 112.772 147.799 112.772C148.868 112.689 150.019 112.607 151.252 112.525V123.254H115.737Z" fill="#23470B"/>
</svg>
