<svg xmlns="http://www.w3.org/2000/svg" viewBox="0 0 640 640"><path fill="#3776AB" d="M317.5 47.5C285.8 47.5 259.6 73.7 259.6 105.4V147.5H317.5C349.2 147.5 375.4 173.7 375.4 205.4V259.6H423.7C455.4 259.6 481.6 285.8 481.6 317.5V423.7C481.6 455.4 455.4 481.6 423.7 481.6H317.5C285.8 481.6 259.6 455.4 259.6 423.7V375.4H205.4C173.7 375.4 147.5 349.2 147.5 317.5V211.3C147.5 179.6 173.7 153.4 205.4 153.4H259.6V105.4C259.6 73.7 285.8 47.5 317.5 47.5ZM293.8 93.8C293.8 87.5 298.8 82.5 305.1 82.5C311.4 82.5 316.4 87.5 316.4 93.8C316.4 100.1 311.4 105.1 305.1 105.1C298.8 105.1 293.8 100.1 293.8 93.8ZM317.5 305.1C349.2 305.1 375.4 331.3 375.4 363V423.7C375.4 455.4 349.2 481.6 317.5 481.6C285.8 481.6 259.6 455.4 259.6 423.7V363C259.6 331.3 285.8 305.1 317.5 305.1ZM435.9 546.2C435.9 539.9 440.9 534.9 447.2 534.9C453.5 534.9 458.5 539.9 458.5 546.2C458.5 552.5 453.5 557.5 447.2 557.5C440.9 557.5 435.9 552.5 435.9 546.2Z"/></svg>
